<svg width="136" height="47" viewBox="0 0 136 47" fill="none" xmlns="http://www.w3.org/2000/svg">
    <rect y="0.321289" width="136" height="46" rx="8" fill="#0C2B5A" />
    <path
        d="M17.0007 24.5196C16.9817 22.0688 17.3458 20.4021 18.4683 18.996C19.7701 17.3663 21.4605 16.5414 23.5843 16.8107C24.3247 16.9045 25.0092 17.2155 25.6852 17.5142C26.4001 17.8299 27.0808 17.8308 27.7938 17.5151C28.3902 17.2516 28.995 16.9899 29.635 16.8552C31.9133 16.3765 33.8597 16.9387 35.4013 18.7363C35.5824 18.9477 35.6118 19.0558 35.3425 19.2492C33.8995 20.2892 33.0529 21.7 33.0576 23.491C33.0624 25.6062 34.0692 27.1753 35.9417 28.1736C36.1076 28.2618 36.2546 28.3044 36.1674 28.55C35.4885 30.4737 34.4428 32.1783 33.0301 33.6413C32.0147 34.6927 30.7718 34.8264 29.4568 34.2736C28.5314 33.884 27.608 33.5616 26.5793 33.6773C25.9839 33.7446 25.4302 33.938 24.886 34.1693C24.5504 34.3125 24.211 34.4396 23.8573 34.5306C22.6466 34.8425 21.7023 34.341 20.9287 33.4905C18.4399 30.7581 17.1164 27.5393 17.0007 24.5196Z"
        fill="white" />
    <path
        d="M68.53 26.8851C68.9415 26.339 69.3302 25.938 69.8469 25.6858C71.6967 24.7832 73.8318 25.481 74.6917 27.3572C75.5507 29.2307 75.4976 31.1278 74.4177 32.9083C73.4971 34.4262 71.5412 35.0169 69.9256 34.3684C69.4478 34.1769 69.096 33.8318 68.7159 33.3663C68.7159 34.138 68.7159 34.8083 68.7159 35.4777C68.7159 36.2191 68.7016 36.9605 68.7234 37.701C68.732 37.9835 68.6305 38.0318 68.3812 38.0214C67.9422 38.0025 67.5004 37.9977 67.0624 38.0214C66.7865 38.0366 66.7381 37.9389 66.7391 37.6829C66.7486 34.9828 66.7448 32.2826 66.7457 29.5824C66.7457 28.3651 66.7362 27.1477 66.6632 25.9323C66.6433 25.6033 66.7125 25.4487 67.0851 25.4942C67.3942 25.5322 67.7166 25.5322 68.0256 25.4942C68.3755 25.4506 68.4608 25.6023 68.4608 25.9095C68.4608 26.1949 68.4987 26.4803 68.5291 26.8851H68.53ZM68.6978 29.9977C68.7187 30.3731 68.7215 30.7505 68.7633 31.124C68.8657 32.0314 69.5208 32.7841 70.3523 32.9766C71.2748 33.1909 72.1698 32.8761 72.641 32.0645C73.4165 30.7277 73.4345 29.3302 72.7159 27.9678C72.2883 27.1563 71.5355 26.8074 70.6272 26.942C69.7588 27.0709 69.1899 27.6085 68.897 28.4343C68.7178 28.9406 68.6969 29.4668 68.6978 29.9977Z"
        fill="white" />
    <path
        d="M58.5881 33.486C58.4743 33.6093 58.5283 33.7401 58.5283 33.8577C58.5236 35.1395 58.5169 36.4213 58.5312 37.7032C58.534 37.9601 58.4544 38.0236 58.2135 38.0141C57.7746 37.9971 57.3328 37.9914 56.8938 38.016C56.5999 38.0322 56.5222 37.944 56.5231 37.6463C56.5345 34.4664 56.5354 31.2874 56.5269 28.1075C56.525 27.3547 56.4909 26.6019 56.451 25.8491C56.4368 25.5742 56.5013 25.4661 56.798 25.4879C57.1735 25.5154 57.5527 25.5088 57.9291 25.4898C58.1462 25.4784 58.2173 25.5638 58.2287 25.7629C58.2477 26.0966 58.2828 26.4294 58.3178 26.8494C58.4923 26.6465 58.6108 26.4967 58.7407 26.3583C60.2311 24.7655 62.9208 25.0015 64.1856 26.8342C65.0057 28.0222 65.1119 29.3542 64.9659 30.7318C64.8398 31.9245 64.3809 32.957 63.4556 33.7553C62.3254 34.7299 60.4236 34.8968 59.2669 34.1279C59.0043 33.9535 58.8137 33.7041 58.5881 33.4851V33.486ZM58.5245 30.0454C58.5245 30.3213 58.5179 30.5981 58.5255 30.874C58.5539 31.8866 59.1986 32.7333 60.1154 32.9665C61.0939 33.2158 62.0268 32.8233 62.5283 31.8819C63.1218 30.7688 63.1379 29.5932 62.7246 28.4185C62.3662 27.4012 61.5432 26.8456 60.5828 26.9148C59.6167 26.984 58.8393 27.6809 58.5956 28.6953C58.4885 29.1409 58.534 29.5941 58.5245 30.0454Z"
        fill="white" />
    <path
        d="M49.6856 22.058C50.0212 22.0979 50.5322 21.8864 50.8157 22.1386C51.0755 22.3709 51.1021 22.8658 51.2253 23.2479C52.3886 26.8374 53.5482 30.4288 54.719 34.0163C54.8195 34.3245 54.7921 34.4269 54.4403 34.406C53.952 34.3776 53.46 34.388 52.9708 34.4041C52.7527 34.4108 52.6655 34.3302 52.6038 34.1273C52.29 33.109 51.9506 32.0983 51.6415 31.0782C51.5752 30.8573 51.4917 30.7777 51.2576 30.7795C50.1265 30.7909 48.9954 30.79 47.8643 30.7777C47.6292 30.7748 47.5429 30.8573 47.4794 31.0773C47.1912 32.0775 46.8755 33.0692 46.5844 34.0685C46.5142 34.3084 46.4194 34.4202 46.1464 34.406C45.6704 34.3804 45.1898 34.3757 44.7148 34.4079C44.3441 34.4326 44.4445 34.2382 44.5043 34.0514C45.0485 32.3562 45.5936 30.661 46.1407 28.9658C46.8413 26.7938 47.5514 24.6245 48.2379 22.4486C48.3346 22.1424 48.4607 22.0163 48.784 22.0523C49.057 22.0827 49.3367 22.059 49.6875 22.059L49.6856 22.058ZM49.5775 23.8784C49.4448 23.922 49.4505 24.0206 49.4306 24.1021C49.3092 24.5875 49.2087 25.0796 49.0655 25.5593C48.7252 26.699 48.3649 27.8329 48.0132 28.9696C47.9752 29.0929 47.8653 29.2427 48.1307 29.2417C49.0845 29.2389 50.0383 29.2389 50.9921 29.2417C51.1542 29.2417 51.1798 29.1868 51.1315 29.0379C50.5759 27.3304 49.9729 25.6371 49.5775 23.8774V23.8784Z"
        fill="white" />
    <path
        d="M83.4874 21.9005C84.3132 21.8863 85.1124 22.0133 85.8823 22.3214C86.1041 22.4106 86.2056 22.512 86.1089 22.768C85.9761 23.1197 85.8633 23.48 85.7714 23.8441C85.7135 24.0726 85.6358 24.0802 85.4329 23.9901C84.481 23.5663 83.4902 23.3909 82.4625 23.6582C81.8178 23.8261 81.3608 24.2214 81.2404 24.8993C81.121 25.5743 81.4063 26.093 81.9572 26.4836C82.454 26.8363 83.0105 27.0657 83.568 27.2951C84.4099 27.6421 85.2072 28.0546 85.8519 28.7211C87.1129 30.0247 87.1508 33.1838 84.4099 34.2115C82.746 34.8353 81.0584 34.7291 79.4087 34.0636C79.074 33.928 78.9489 33.745 79.1015 33.381C79.2267 33.0823 79.3054 32.7609 79.3727 32.4423C79.4229 32.2034 79.4902 32.1627 79.7149 32.2859C80.5938 32.7694 81.54 32.9761 82.5431 32.9297C83.001 32.9088 83.439 32.8216 83.8363 32.5789C84.7787 32.0024 84.9531 30.714 84.1937 29.9081C83.695 29.3791 83.0352 29.124 82.3772 28.8728C81.6917 28.6111 81.0413 28.2906 80.4687 27.8289C78.5137 26.2513 78.9081 23.3217 81.212 22.3053C81.9211 21.9924 82.4236 21.9033 83.4902 21.9005H83.4874Z"
        fill="white" />
    <path
        d="M94.2656 29.9242C94.2865 28.4575 94.7511 27.0486 96.1154 26.0626C98.7624 24.1494 102.526 25.7734 102.94 28.9979C103.09 30.1707 102.997 31.3122 102.435 32.3674C101.558 34.0143 99.8755 34.8315 97.9803 34.5756C95.7172 34.2703 94.2884 32.5353 94.2656 29.9233V29.9242ZM100.919 29.8455C100.94 29.3544 100.834 28.7874 100.601 28.2527C100.25 27.4459 99.7124 26.8429 98.7653 26.7879C97.9414 26.7405 97.2739 27.0685 96.8786 27.7948C96.0803 29.2624 96.0528 30.7633 96.9317 32.1977C97.7063 33.4615 99.3872 33.4606 100.243 32.2508C100.734 31.5587 100.924 30.7794 100.918 29.8455H100.919Z"
        fill="white" />
    <path
        d="M115.227 30.4467C114.347 30.4467 113.467 30.4553 112.587 30.441C112.323 30.4372 112.239 30.4979 112.269 30.7786C112.414 32.158 113.431 33.0198 114.99 33.0436C115.736 33.0549 116.47 32.9563 117.176 32.7041C117.385 32.6292 117.47 32.6539 117.495 32.8843C117.518 33.0824 117.576 33.2768 117.622 33.4721C117.758 34.0447 117.762 34.0542 117.216 34.2192C116.056 34.569 114.872 34.6942 113.678 34.4676C111.874 34.1253 110.723 32.9753 110.418 31.1654C110.137 29.5024 110.361 27.921 111.519 26.6012C112.608 25.3602 114.025 25.0672 115.569 25.4228C116.995 25.7518 117.729 26.7975 118.079 28.1523C118.245 28.7913 118.261 29.4417 118.222 30.0978C118.205 30.368 118.108 30.4581 117.829 30.4524C116.962 30.4334 116.094 30.4458 115.227 30.4458L115.227 30.4467ZM114.267 28.999C114.857 28.999 115.447 28.999 116.037 28.999C116.17 28.999 116.305 29.0331 116.33 28.8141C116.452 27.7172 115.435 26.6297 114.331 26.6904C113.308 26.7473 112.31 27.7778 112.271 28.8037C112.264 28.9942 112.353 29.0028 112.497 29.0018C113.087 28.9971 113.677 28.9999 114.267 28.9999V28.999Z"
        fill="white" />
    <path
        d="M89.0407 29.6418C89.0407 28.8625 89.0322 28.0832 89.0455 27.3038C89.0493 27.0735 88.9838 26.9862 88.7497 27.0033C88.4994 27.0204 88.2462 26.9995 87.9959 27.0118C87.8025 27.0213 87.7115 26.9549 87.7342 26.7549C87.7418 26.6933 87.7324 26.6288 87.7361 26.5662C87.7551 26.2297 87.5987 25.803 87.7968 25.5802C88.0035 25.3479 88.4377 25.5129 88.7715 25.5082C88.9867 25.5053 89.053 25.4418 89.0436 25.2285C89.0275 24.8521 89.0426 24.4747 89.0379 24.0974C89.036 23.9618 89.0464 23.8689 89.2133 23.8224C89.7451 23.6755 90.2742 23.5153 90.7994 23.3437C91.0355 23.2659 91.0184 23.4043 91.0184 23.5513C91.0184 24.104 91.0298 24.6577 91.0128 25.2105C91.0052 25.4494 91.0858 25.5119 91.3124 25.5063C91.8528 25.493 92.3941 25.5101 92.9345 25.4977C93.1346 25.493 93.201 25.5575 93.1915 25.7556C93.1716 26.1557 93.3176 26.6648 93.1223 26.9275C92.9345 27.1796 92.3951 26.9787 92.0111 27.009C91.6906 27.0346 91.2792 26.8658 91.0725 27.0848C90.8857 27.283 91.0232 27.684 91.0213 27.995C91.0146 29.1138 91.0165 30.2325 91.0213 31.3503C91.0213 31.538 91.0336 31.7277 91.0649 31.9125C91.1957 32.6776 91.5598 32.946 92.4235 32.9251C92.561 32.9213 92.7004 32.909 92.835 32.8834C92.9848 32.8549 93.0417 32.9071 93.0455 33.055C93.0559 33.4314 93.0739 33.8078 93.0891 34.1842C93.0929 34.2913 93.0663 34.3681 92.9535 34.4231C92.1078 34.8365 90.4458 34.5947 89.7802 33.949C89.236 33.4209 89.1042 32.7232 89.0701 32.0159C89.0322 31.2261 89.0616 30.4335 89.0616 29.6418H89.0417H89.0407Z"
        fill="white" />
    <path
        d="M106.472 27.0813C106.641 26.8064 106.757 26.5883 106.9 26.3892C107.43 25.6525 108.151 25.2913 109.063 25.3103C109.302 25.315 109.425 25.3842 109.41 25.6601C109.387 26.0991 109.399 26.54 109.406 26.9789C109.409 27.1572 109.392 27.2368 109.161 27.2283C107.564 27.1742 106.706 28.0114 106.688 29.6488C106.672 31.106 106.677 32.5641 106.69 34.0214C106.693 34.303 106.649 34.43 106.327 34.4072C105.889 34.376 105.448 34.3864 105.008 34.4054C104.744 34.4167 104.668 34.3333 104.671 34.0659C104.691 32.1565 104.7 30.247 104.7 28.3375C104.7 27.4843 104.68 26.63 104.644 25.7767C104.634 25.5511 104.694 25.4895 104.907 25.4952C105.309 25.5065 105.712 25.5075 106.114 25.4952C106.327 25.4895 106.399 25.5682 106.4 25.7796C106.401 26.1882 106.39 26.5997 106.472 27.0794V27.0813Z"
        fill="white" />
    <path
        d="M45.58 14.6656C45.58 13.7611 45.5819 12.8576 45.58 11.9531C45.58 11.8099 45.5648 11.681 45.7687 11.6582C46.8201 11.5397 47.8744 11.443 48.8955 11.8128C49.909 12.1797 50.4323 12.9609 50.5433 14.001C50.6589 15.0837 50.5177 16.1152 49.6577 16.9097C49.16 17.3705 48.5475 17.58 47.8896 17.6758C47.2145 17.7735 46.5385 17.7279 45.8616 17.6957C45.6331 17.6853 45.5715 17.6028 45.5743 17.3762C45.5885 16.4727 45.58 15.5682 45.581 14.6637L45.58 14.6656ZM46.5746 14.6561C46.5746 15.3207 46.5755 15.9863 46.5736 16.6509C46.5736 16.7798 46.5546 16.9078 46.7414 16.9221C47.9597 17.015 49.2548 16.7391 49.4871 15.0382C49.5999 14.2077 49.5421 13.3933 48.8272 12.8016C48.2754 12.3447 47.6108 12.3295 46.9329 12.3608C46.6608 12.3731 46.5603 12.4537 46.5679 12.7362C46.5869 13.3752 46.5736 14.0162 46.5746 14.6561Z"
        fill="white" />
    <path
        d="M26.5405 15.8956C26.568 13.7918 28.2661 11.6974 30.4334 11.1276C31.3635 10.883 31.4005 10.8195 31.3066 11.8747C31.1141 14.0411 29.619 15.8416 27.5967 16.3592C27.4403 16.399 27.2772 16.4237 27.1151 16.4351C26.533 16.4768 26.533 16.4739 26.5405 15.8956Z"
        fill="white" />
    <path
        d="M58.726 16.6163C59.0417 15.5507 59.3555 14.5874 59.6029 13.6071C59.7034 13.2098 59.9509 13.3103 60.1984 13.28C60.479 13.2459 60.5577 13.3919 60.6221 13.628C60.8819 14.5779 61.1901 15.5147 61.4053 16.4684C61.5228 16.4798 61.5285 16.4087 61.5389 16.3509C61.7049 15.436 61.9855 14.5495 62.195 13.646C62.2633 13.353 62.3818 13.2677 62.6738 13.2781C63.2721 13.2999 63.2759 13.2847 63.1024 13.8422C62.7335 15.0273 62.3505 16.2096 61.9969 17.3995C61.9277 17.6308 61.8262 17.6858 61.6072 17.6839C60.9853 17.6801 60.9815 17.6896 60.808 17.0866C60.5899 16.3272 60.3785 15.5668 60.1652 14.8064C60.1453 14.7353 60.1433 14.6547 60.04 14.6159C59.8428 15.5621 59.4825 16.458 59.2332 17.3853C59.1061 17.8602 58.762 17.6204 58.5069 17.6763C58.2519 17.7332 58.1675 17.5872 58.1031 17.3625C57.7409 16.0958 57.3692 14.833 56.989 13.572C56.9265 13.3634 56.9293 13.2847 57.1815 13.2791C57.9438 13.262 57.94 13.2525 58.1135 14.0091C58.306 14.8463 58.506 15.6825 58.726 16.6154V16.6163Z"
        fill="white" />
    <path
        d="M85.856 13.7296C85.856 12.9654 85.8693 12.2923 85.8494 11.6191C85.8418 11.348 85.93 11.2816 86.1888 11.2864C86.8411 11.2977 86.8373 11.2864 86.8421 11.9443C86.8563 13.74 86.7985 15.5367 86.8781 17.3314C86.8904 17.6139 86.825 17.7012 86.5358 17.6869C86.0694 17.6642 86.0684 17.6841 85.9016 17.1048C85.5479 17.5817 85.0928 17.7979 84.5079 17.7799C83.9949 17.7647 83.5863 17.5751 83.2497 17.2015C82.4695 16.3359 82.533 14.6218 83.3132 13.7571C83.8537 13.1579 85.1582 12.9749 85.857 13.7296H85.856ZM85.8485 15.4864H85.8551C85.8551 15.3366 85.8598 15.1859 85.8551 15.0361C85.8352 14.544 85.4901 14.0984 85.0653 14.0121C84.5647 13.9107 84.1201 14.125 83.8906 14.6066C83.6233 15.1669 83.6128 15.7453 83.8575 16.3141C84.0613 16.7891 84.5107 17.0403 84.9686 16.9683C85.4228 16.8972 85.7992 16.4772 85.8475 15.9737C85.8627 15.8126 85.8504 15.6485 85.8504 15.4864H85.8485Z"
        fill="white" />
    <path
        d="M109.238 13.7329C109.657 13.4153 110.042 13.2039 110.546 13.2181C111.306 13.2399 111.856 13.6779 111.993 14.4326C112.146 15.2802 112.042 16.1373 112.061 16.9896C112.077 17.7073 112.064 17.6959 111.342 17.6846C111.097 17.6808 111.058 17.5926 111.063 17.3717C111.078 16.7061 111.071 16.0396 111.066 15.3741C111.065 15.1863 111.051 14.9977 111.026 14.8118C110.96 14.3387 110.708 14.0761 110.293 14.0335C109.866 13.9898 109.466 14.2373 109.312 14.644C109.235 14.8479 109.236 15.0612 109.237 15.2755C109.239 15.9789 109.228 16.6834 109.244 17.3869C109.25 17.6229 109.176 17.6827 108.946 17.6846C108.241 17.6893 108.241 17.6988 108.241 17.0095C108.241 15.2375 108.248 13.4655 108.234 11.6945C108.233 11.3987 108.282 11.2707 108.617 11.283C109.238 11.3067 109.238 11.2859 109.237 11.8983C109.237 12.5099 109.237 13.1204 109.237 13.732L109.238 13.7329Z"
        fill="white" />
    <path
        d="M92.9915 17.7687C91.722 17.7687 90.8867 16.8813 90.8867 15.5369C90.8867 14.0815 91.7172 13.2178 93.1109 13.2197C94.3548 13.2216 95.1816 14.1071 95.1863 15.4411C95.1911 16.8433 94.3179 17.7696 92.9905 17.7687H92.9915ZM91.9012 15.3027C91.8964 15.8753 91.9713 16.2527 92.1979 16.5883C92.6018 17.1875 93.3925 17.1998 93.8154 16.6139C94.2468 16.0166 94.2638 15.0202 93.8543 14.402C93.4295 13.762 92.5686 13.7791 92.1685 14.438C91.9742 14.7575 91.8936 15.1083 91.9021 15.3027H91.9012Z"
        fill="white" />
    <path
        d="M74.5567 13.2197C75.8642 13.2197 76.6824 14.0853 76.6795 15.4658C76.6767 16.8595 75.8168 17.7706 74.5036 17.7715C73.2152 17.7715 72.3771 16.8822 72.3809 15.5151C72.3847 14.1081 73.2266 13.2197 74.5577 13.2197H74.5567ZM75.6376 15.4885C75.6518 15.0941 75.5636 14.7063 75.3228 14.3669C74.9161 13.7943 74.1462 13.7886 73.7243 14.3508C73.2863 14.9339 73.2853 16.0432 73.7224 16.6272C74.1282 17.1695 74.844 17.1913 75.2697 16.6651C75.5409 16.3304 75.6518 15.936 75.6366 15.4885H75.6376Z"
        fill="white" />
    <path
        d="M51.7051 15.497C51.7032 14.5868 52.017 13.8236 52.8712 13.4263C53.6392 13.0689 54.4422 13.0812 55.159 13.5979C56.0142 14.2142 56.2597 15.66 55.7212 16.6792C55.1846 17.6975 54.0905 17.9724 53.0647 17.6671C52.2161 17.4149 51.7089 16.5673 51.7051 15.497ZM54.958 15.46C54.958 14.9793 54.8158 14.5508 54.5655 14.2711C54.1445 13.8008 53.442 13.8274 53.0571 14.328C52.6077 14.9139 52.5896 16.0023 53.021 16.6024C53.4553 17.2073 54.2488 17.194 54.6593 16.5692C54.8793 16.2346 54.9665 15.8582 54.958 15.46Z"
        fill="white" />
    <path
        d="M97.4894 13.8774C97.7947 13.5645 98.0877 13.3161 98.4916 13.2431C99.5506 13.0516 100.324 13.6537 100.383 14.7885C100.429 15.6769 100.391 16.57 100.399 17.4603C100.401 17.6309 100.335 17.6651 100.181 17.6774C99.3999 17.7419 99.3999 17.7466 99.3999 16.9663C99.3999 16.351 99.4084 15.7366 99.397 15.1213C99.3894 14.726 99.3363 14.3306 98.9334 14.1182C98.3712 13.8224 97.6705 14.2007 97.6136 14.89C97.5501 15.6627 97.5881 16.4439 97.5681 17.2204C97.5643 17.3674 97.6819 17.6025 97.4752 17.6489C97.2003 17.7115 96.9007 17.7153 96.6219 17.6347C96.53 17.6082 96.5755 17.4783 96.5745 17.3948C96.566 16.1282 96.5651 14.8606 96.547 13.5939C96.5432 13.3512 96.603 13.2668 96.8618 13.2744C97.4022 13.2905 97.4032 13.2744 97.4894 13.8755V13.8774Z"
        fill="white" />
    <path
        d="M65.3823 13.8918C65.6828 13.5666 65.971 13.3324 66.3512 13.2527C67.4273 13.0252 68.2559 13.6832 68.2891 14.8285C68.3147 15.6941 68.2882 16.5616 68.2976 17.4281C68.2995 17.6339 68.2218 17.6766 68.0331 17.6832C67.2974 17.7078 67.2974 17.7145 67.2974 17.0015C67.2974 16.3862 67.3078 15.7699 67.2945 15.1546C67.287 14.7754 67.2557 14.3867 66.8888 14.1525C66.3379 13.8017 65.606 14.1677 65.5112 14.8673C65.404 15.6533 65.4657 16.4478 65.479 17.2376C65.4846 17.5979 65.3908 17.7467 65.0229 17.6794C64.9253 17.6614 64.8219 17.6709 64.7214 17.6794C64.529 17.6936 64.4673 17.6216 64.4673 17.4196C64.4711 16.1264 64.4635 14.8323 64.4512 13.5391C64.4493 13.3438 64.509 13.2831 64.7091 13.2793C65.296 13.2679 65.296 13.2584 65.3813 13.8918H65.3823Z"
        fill="white" />
    <path
        d="M115.832 15.7293C115.443 15.7293 115.053 15.7388 114.664 15.7255C114.427 15.7179 114.392 15.8033 114.443 16.0175C114.576 16.5817 114.98 16.9381 115.585 16.9941C115.965 17.0292 116.336 16.9675 116.704 16.8775C116.81 16.8519 116.971 16.721 116.988 16.9457C117.003 17.1448 117.259 17.38 116.967 17.5487C116.183 18.0028 114.656 17.7914 114.03 17.1571C113.093 16.2081 113.314 14.2067 114.436 13.4871C115.044 13.0974 115.995 13.0841 116.544 13.4766C117.247 13.9791 117.379 14.7168 117.352 15.5132C117.347 15.6971 117.238 15.735 117.076 15.7322C116.662 15.7255 116.248 15.7303 115.833 15.7303V15.7284L115.832 15.7293ZM115.395 15.0201C115.633 15.0201 115.873 15.0059 116.11 15.0239C116.39 15.0448 116.426 14.9178 116.373 14.6845C116.27 14.2313 115.983 13.945 115.571 13.9061C115.105 13.8616 114.72 14.1138 114.52 14.5945C114.36 14.9794 114.385 15.0173 114.793 15.0192C114.994 15.0201 115.194 15.0192 115.395 15.0192V15.0201Z"
        fill="white" />
    <path
        d="M80.3448 17.2741C80.011 17.6202 79.5929 17.7975 79.0829 17.7785C78.4988 17.7557 78.0589 17.4941 77.8626 17.002C77.6484 16.4663 77.7688 15.8577 78.167 15.4718C78.6192 15.0347 79.1928 14.9238 79.7873 14.8536C79.9655 14.8328 80.2575 14.9617 80.2945 14.6924C80.3353 14.3966 80.1808 14.1293 79.8717 14.0079C79.4043 13.8259 78.9606 13.9539 78.5178 14.1141C78.4306 14.1454 78.2931 14.353 78.239 14.1056C78.1973 13.9141 77.9375 13.7064 78.2153 13.5083C78.7358 13.1366 80.1021 13.1167 80.6434 13.4628C81.1013 13.7548 81.2701 14.2127 81.2938 14.7152C81.3365 15.6424 81.2644 16.5725 81.3526 17.4998C81.3621 17.6012 81.3459 17.677 81.2255 17.678C81.0122 17.6789 80.797 17.6903 80.5856 17.6704C80.3438 17.6477 80.5372 17.367 80.3448 17.2732V17.2741ZM80.3372 15.9392C80.2689 15.8197 80.4822 15.5325 80.1713 15.5201C79.7702 15.504 79.3654 15.5562 79.0269 15.8131C78.7747 16.0046 78.6761 16.4113 78.825 16.7015C78.9757 16.9973 79.2393 17.0816 79.556 17.0295C80.0689 16.9451 80.3353 16.5839 80.3372 15.9392Z"
        fill="white" />
    <path
        d="M104.867 15.3403C104.867 15.0018 104.856 14.6624 104.871 14.324C104.881 14.0945 104.802 13.9921 104.57 14.0348C104.25 14.0945 104.237 13.9077 104.238 13.6631C104.239 13.4195 104.252 13.2289 104.571 13.2886C104.849 13.3408 104.872 13.1787 104.874 12.9606C104.875 12.8061 104.775 12.5852 104.936 12.5055C105.191 12.3794 105.478 12.3121 105.759 12.2505C105.882 12.2239 105.86 12.3586 105.866 12.442C105.888 12.7122 105.747 13.0535 105.934 13.2346C106.104 13.3996 106.437 13.2782 106.698 13.2839C107.06 13.2924 106.893 13.5588 106.92 13.7248C106.949 13.8973 106.942 14.0452 106.687 14.0386C106.428 14.0319 106.086 13.9163 105.928 14.0917C105.747 14.2936 105.874 14.6425 105.867 14.9269C105.856 15.3782 105.853 15.8305 105.865 16.2818C105.879 16.7805 106.088 16.9691 106.569 16.9454C106.697 16.9388 106.879 16.8544 106.851 17.0962C106.829 17.3057 107.048 17.6157 106.701 17.7058C105.944 17.903 105.011 17.7978 104.905 16.6534C104.865 16.2183 104.898 15.7774 104.898 15.3384H104.864L104.867 15.3403Z"
        fill="white" />
    <path
        d="M69.9687 14.4992C69.9687 13.5331 69.9782 12.567 69.963 11.6009C69.9592 11.3459 70.0417 11.2852 70.2835 11.2861C70.9632 11.289 70.9632 11.2786 70.9632 11.9527C70.9632 13.7474 70.9557 15.5412 70.9708 17.3359C70.9737 17.6317 70.8808 17.6905 70.6096 17.6848C69.9696 17.6706 69.9696 17.6848 69.9687 17.06C69.9687 16.2068 69.9687 15.3535 69.9687 14.5002V14.4992Z"
        fill="white" />
</svg>
    