<svg width="136" height="47" viewBox="0 0 136 47" fill="none" xmlns="http://www.w3.org/2000/svg">
    <rect y="0.321289" width="136" height="46" rx="8" fill="#0C2B5A" />
    <path
        d="M14.6275 35.5189C14.3392 35.133 14.2416 34.6874 14.2416 34.2181C14.2387 27.4582 14.2368 20.6973 14.2397 13.9374C14.2397 13.4387 14.2729 12.9372 14.6265 12.5304C14.7953 12.5096 14.8778 12.648 14.9707 12.74C16.6583 14.4058 18.3184 16.0962 20.0506 17.7175C21.6595 19.224 23.1764 20.8282 24.7474 22.3745C25.2878 22.9064 25.7818 23.4895 26.3933 23.9483C26.3962 23.9863 26.399 24.0242 26.4018 24.0621C26.3487 24.0924 26.2852 24.1133 26.2435 24.155C25.5599 24.8376 24.882 25.525 24.1975 26.2067C22.5535 27.8412 20.9095 29.4776 19.2589 31.1045C18.0273 32.3181 16.792 33.5279 15.5414 34.7196C15.2504 34.9974 15.0323 35.3691 14.6265 35.5189H14.6275Z"
        fill="#00D5FD" />
    <path
        d="M26.3938 23.9448C25.7822 23.4869 25.2883 22.9029 24.7479 22.371C23.1759 20.8246 21.6599 19.2205 20.051 17.7139C18.3188 16.0927 16.6587 14.4013 14.9711 12.7364C14.8782 12.6445 14.7957 12.5061 14.627 12.5269C15.0441 12.0661 15.5409 11.9429 16.1562 12.1714C16.8076 12.4131 17.3878 12.7962 17.9898 13.1337C22.0411 15.4025 26.0894 17.6751 30.1387 19.9467C30.2165 19.9903 30.2914 20.0415 30.3672 20.0889C29.4694 20.9678 28.5706 21.8457 27.6746 22.7275C27.2546 23.1408 26.883 23.6045 26.3938 23.9448Z"
        fill="#02EE77" />
    <path
        d="M14.627 35.5202C15.0327 35.3704 15.2499 34.9988 15.5419 34.721C16.7933 33.5283 18.0287 32.3185 19.2593 31.1059C20.9109 29.478 22.554 27.8426 24.198 26.2081C24.8825 25.5273 25.5604 24.839 26.244 24.1564C26.2857 24.1147 26.3492 24.0938 26.4023 24.0635C26.7815 24.3242 27.065 24.6854 27.3902 25.0021C28.3895 25.9748 29.3869 26.9504 30.3843 27.9251C28.8332 28.8002 27.284 29.679 25.731 30.5494C23.0318 32.0635 20.3297 33.5729 17.6277 35.0813C17.1622 35.3411 16.7137 35.634 16.2112 35.8265C15.6158 36.054 15.0839 35.9915 14.627 35.5202Z"
        fill="#FA3A45" />
    <path
        d="M30.3851 27.9221C29.3867 26.9474 28.3903 25.9728 27.391 24.9991C27.0658 24.6824 26.7823 24.3212 26.4031 24.0605C26.4002 24.0226 26.3974 23.9846 26.3945 23.9467C26.8837 23.6064 27.2554 23.1427 27.6754 22.7294C28.5704 21.8476 29.4701 20.9697 30.368 20.0908C31.5816 20.7753 32.8217 21.4106 34.0011 22.1567C34.3064 22.3501 34.6648 22.4734 34.9776 22.6696C35.1075 22.7512 35.2374 22.8337 35.3578 22.9294C36.1789 23.5789 36.1817 24.5033 35.3256 25.111C34.8155 25.4722 34.2514 25.7585 33.7053 26.0676C32.6017 26.6905 31.4924 27.3049 30.386 27.923L30.3851 27.9221Z"
        fill="#FBCB04" />
    <path
        d="M53.1467 26.4449C53.981 26.4449 54.8163 26.4535 55.6506 26.4383C55.9 26.4336 56.0062 26.4886 56.0356 26.7597C56.4489 30.5417 53.9023 32.8683 50.9841 33.0977C48.1218 33.3224 45.6283 31.9192 44.5096 29.4684C42.8921 25.9225 45.0709 21.7794 48.9742 21.0048C50.9386 20.6151 52.7144 21.0304 54.2731 22.3188C54.5044 22.5104 54.5072 22.6232 54.2835 22.81C54.0379 23.0157 53.8094 23.2442 53.598 23.484C53.4141 23.6936 53.2965 23.7173 53.0538 23.5229C50.7917 21.7121 47.3833 22.5056 46.2332 25.1214C45.507 26.7739 45.671 28.3724 46.8011 29.7898C47.936 31.2129 49.47 31.6851 51.2392 31.3618C52.9021 31.0584 53.9858 29.9861 54.2806 28.4483C54.3309 28.1885 54.2787 28.1193 54.0095 28.1231C52.867 28.1373 51.7236 28.1193 50.5812 28.1345C50.3223 28.1382 50.2474 28.0643 50.2598 27.813C50.2787 27.4423 50.2749 27.0688 50.2598 26.6971C50.2522 26.4905 50.3252 26.4374 50.5252 26.4402C51.3984 26.4506 52.2716 26.4449 53.1448 26.444L53.1467 26.4449Z"
        fill="white" />
    <path
        d="M80.182 32.2261C78.5172 33.8606 75.8739 33.1021 74.7457 31.204C73.3264 28.8167 74.8063 25.6757 77.5539 25.2775C78.5323 25.1353 79.4046 25.3865 80.1223 26.0862C80.1536 26.0568 80.1849 26.0426 80.1858 26.0265C80.206 25.658 80.3991 25.4734 80.7651 25.4728C81.0344 25.4728 81.3046 25.4842 81.5738 25.469C81.7796 25.4576 81.8687 25.506 81.8668 25.7373C81.8421 28.1995 81.9218 30.6636 81.8232 33.1249C81.7758 34.3157 81.3444 35.3614 80.3091 36.0507C78.7362 37.0983 75.9289 37.0225 74.6414 34.6153C74.5285 34.4048 74.5437 34.3138 74.776 34.2313C75.1135 34.1118 75.4454 33.9725 75.7677 33.817C75.9763 33.7165 76.0692 33.7667 76.183 33.962C76.7386 34.9168 77.6345 35.3045 78.6556 35.0571C79.5506 34.84 80.0825 34.1905 80.1792 33.1666C80.2067 32.8793 80.183 32.5863 80.183 32.2242L80.182 32.2261ZM80.311 29.214C80.3138 28.0241 79.6321 27.0675 78.6224 26.8447C77.4875 26.5934 76.3802 27.3064 76.0483 28.501C75.6947 29.7734 76.3422 31.0865 77.5122 31.4714C78.9524 31.9454 80.3072 30.8532 80.311 29.214Z"
        fill="white" />
    <path
        d="M96.9046 27.0662C96.9046 25.2572 96.9122 23.4473 96.897 21.6384C96.8942 21.3454 96.9729 21.2819 97.2554 21.2866C98.6027 21.3056 99.9528 21.2601 101.299 21.3122C102.712 21.3663 103.855 21.9844 104.549 23.2473C105.694 25.3331 104.451 27.856 102.044 28.3954C101.577 28.5007 101.103 28.4959 100.628 28.5026C99.9888 28.5111 99.3479 28.4627 98.7098 28.531C98.6084 29.1653 98.6795 29.8043 98.6671 30.4414C98.6529 31.1468 98.651 31.8531 98.67 32.5585C98.6776 32.8297 98.5979 32.9178 98.3268 32.9008C97.9684 32.878 97.6062 32.8714 97.2497 32.9027C96.9407 32.9292 96.8989 32.806 96.9008 32.5339C96.9132 30.7116 96.9065 28.8903 96.9065 27.0681L96.9046 27.0662ZM98.6605 24.8723C98.6605 25.4497 98.669 26.0271 98.6558 26.6045C98.651 26.8206 98.7174 26.887 98.9354 26.8823C99.7186 26.868 100.502 26.8946 101.284 26.868C102.343 26.8311 103.211 25.9256 103.213 24.897C103.214 23.8474 102.329 22.9439 101.251 22.9183C100.481 22.9003 99.71 22.9249 98.9402 22.906C98.6823 22.8993 98.651 22.9989 98.6567 23.2169C98.6709 23.7678 98.6614 24.3205 98.6605 24.8714V24.8723Z"
        fill="white" />
    <path
        d="M113.869 31.9487C112.869 33.2248 111.64 33.3623 110.302 32.8636C109.289 32.4863 108.695 31.7231 108.663 30.6176C108.632 29.5662 109.195 28.8456 110.103 28.4C111.324 27.8008 112.572 27.7961 113.816 28.3573C113.887 27.9525 113.746 27.5789 113.408 27.2794C112.556 26.5237 110.987 26.6631 110.523 27.4841C110.433 27.6434 110.343 27.6112 110.213 27.5543C109.849 27.396 109.484 27.2376 109.111 27.103C108.897 27.0262 108.873 26.9504 108.989 26.7522C109.394 26.0601 110.002 25.6335 110.748 25.4069C111.751 25.1016 112.757 25.1442 113.722 25.5595C114.864 26.0516 115.503 26.9466 115.545 28.1838C115.594 29.6704 115.559 31.159 115.571 32.6465C115.573 32.8437 115.5 32.8816 115.326 32.8769C114.929 32.8665 114.53 32.8589 114.133 32.8778C113.899 32.8892 113.85 32.7916 113.866 32.5887C113.879 32.4104 113.869 32.2303 113.869 31.9497V31.9487ZM112.36 29.3566C111.872 29.3623 111.393 29.4088 110.961 29.6742C110.592 29.9008 110.383 30.2213 110.414 30.6546C110.445 31.0935 110.752 31.3239 111.134 31.4623C112.261 31.8719 113.591 31.1201 113.839 29.9473C113.873 29.7899 113.837 29.7207 113.695 29.6543C113.271 29.4571 112.83 29.35 112.36 29.3547V29.3566Z"
        fill="white" />
    <path
        d="M56.6799 29.162C56.7036 26.8951 58.469 25.2075 60.7823 25.2397C63.0265 25.2719 64.7292 27.0202 64.7036 29.2682C64.6799 31.4431 62.8852 33.1582 60.6562 33.1364C58.3979 33.1146 56.6572 31.3739 56.6799 29.161V29.162ZM62.943 29.1819C62.9373 27.8356 61.9561 26.7936 60.6932 26.7946C59.4256 26.7946 58.4329 27.8356 58.4263 29.1686C58.4197 30.5196 59.418 31.5749 60.7008 31.5739C61.9598 31.573 62.9487 30.5187 62.943 29.1819Z"
        fill="white" />
    <path
        d="M65.4287 29.1348C65.4771 26.8689 67.2509 25.1974 69.5643 25.2401C71.7743 25.2799 73.5216 27.0765 73.4695 29.2543C73.4164 31.4747 71.6292 33.1737 69.3879 33.1358C67.1334 33.0979 65.3832 31.3287 65.4297 29.1348H65.4287ZM69.4752 31.5743C70.7655 31.542 71.7402 30.4716 71.7051 29.1253C71.67 27.7838 70.6603 26.7627 69.3984 26.794C68.1156 26.8262 67.1467 27.908 67.1912 29.26C67.2348 30.5911 68.236 31.6056 69.4742 31.5743H69.4752Z"
        fill="white" />
    <path
        d="M89.6464 33.1345C87.7369 33.1506 86.1185 31.846 85.7583 30.002C85.3771 28.0489 86.3281 26.1945 88.0669 25.4986C89.9517 24.7448 91.9322 25.6057 92.795 27.554C93.0756 28.1864 93.0775 28.1911 92.4537 28.4471C90.9728 29.0539 89.4928 29.6626 88.0062 30.2532C87.7274 30.3642 87.7407 30.4647 87.8877 30.6799C88.6727 31.8366 90.3641 31.9143 91.3473 30.8022C91.5729 30.5462 91.717 30.4998 91.9806 30.7169C92.2167 30.9112 92.4793 31.08 92.7495 31.2241C92.9913 31.353 92.9401 31.4659 92.8017 31.6318C91.9797 32.6159 90.933 33.1241 89.6473 33.1336L89.6464 33.1345ZM89.5336 26.7643C88.4575 26.75 87.4326 27.7512 87.4241 28.8121C87.4222 29.0293 87.4857 29.0454 87.6687 28.9695C88.6964 28.541 89.7251 28.1115 90.7614 27.7038C91.0382 27.5948 90.968 27.4801 90.8334 27.3255C90.4892 26.9321 90.0389 26.7823 89.5326 26.7652L89.5336 26.7643Z"
        fill="white" />
    <path
        d="M119.701 30.5477C120.213 29.2753 120.694 28.0779 121.175 26.8805C121.332 26.4889 121.499 26.1002 121.639 25.702C121.707 25.5105 121.813 25.4583 122.005 25.4621C122.544 25.4735 123.082 25.4659 123.619 25.4659C123.696 25.6034 123.589 25.6934 123.547 25.7882C122.037 29.2222 120.519 32.6534 119.013 36.0883C118.905 36.3358 118.78 36.4353 118.505 36.4164C118.122 36.3889 117.735 36.3984 117.35 36.4135C117.104 36.423 117.033 36.3946 117.159 36.1282C117.678 35.0284 118.168 33.9134 118.685 32.8127C118.789 32.5937 118.789 32.4221 118.69 32.2031C117.754 30.1248 116.83 28.0419 115.903 25.9599C115.837 25.811 115.777 25.6584 115.698 25.4668C116.296 25.4668 116.855 25.4754 117.415 25.463C117.642 25.4583 117.647 25.6347 117.7 25.7626C118.33 27.2758 118.954 28.7909 119.58 30.3059C119.604 30.3638 119.636 30.4197 119.701 30.5486V30.5477Z"
        fill="white" />
    <path
        d="M84.8307 27.1225C84.8307 28.9191 84.8202 30.7148 84.8392 32.5115C84.843 32.8471 84.7435 32.9248 84.4325 32.9002C84.0883 32.8727 83.7394 32.8822 83.3934 32.8964C83.1582 32.9068 83.0606 32.8547 83.0615 32.5845C83.071 28.9153 83.0701 25.2453 83.0644 21.5761C83.0644 21.3647 83.1146 21.2784 83.3403 21.2889C83.7119 21.3059 84.0855 21.3126 84.4562 21.2889C84.7472 21.2699 84.8411 21.3448 84.8383 21.6577C84.8212 23.4799 84.8297 25.3012 84.8297 27.1234L84.8307 27.1225Z"
        fill="white" />
    <path
        d="M105.929 27.087C105.929 25.278 105.938 23.47 105.922 21.6611C105.919 21.351 106.008 21.2676 106.305 21.2894C106.662 21.3159 107.024 21.314 107.382 21.2894C107.65 21.2704 107.696 21.3766 107.695 21.6165C107.687 23.4378 107.691 25.2591 107.691 27.0813C107.691 28.8903 107.682 30.6983 107.699 32.5072C107.702 32.8343 107.609 32.931 107.293 32.9007C107 32.8732 106.699 32.8637 106.409 32.9017C105.986 32.9566 105.916 32.7784 105.921 32.3973C105.941 30.6272 105.929 28.8571 105.929 27.087Z"
        fill="white" />
    <path
        d="M48.5709 14.0445C48.9179 14.0445 49.2677 14.0767 49.61 14.0359C49.9968 13.9895 50.0518 14.1886 50.0641 14.492C50.122 15.8838 49.2165 17.0073 47.8105 17.2775C46.1779 17.5913 44.605 16.6043 44.2457 15.04C43.8702 13.4045 44.8145 11.8183 46.4253 11.422C47.4038 11.1812 48.3083 11.3699 49.1009 12.0118C49.2848 12.1606 49.3758 12.2867 49.1378 12.518C48.8648 12.7835 48.7264 12.884 48.3632 12.5787C47.7527 12.0639 46.9961 12.0848 46.2907 12.4014C45.5398 12.7389 45.1492 13.3675 45.0933 14.1914C45.0335 15.0779 45.4763 15.8601 46.2471 16.2422C47.0056 16.6185 47.9594 16.5038 48.5917 15.9558C48.6875 15.8724 48.7747 15.7757 48.8496 15.6733C49.0032 15.4638 49.1758 15.1955 49.0772 14.9736C48.9947 14.7897 48.6837 14.9148 48.4751 14.9053C48.1167 14.8892 47.7555 14.8835 47.3971 14.9053C47.1317 14.9224 47.0511 14.8219 47.089 14.5773C47.0985 14.5147 47.0985 14.4484 47.089 14.3848C47.0511 14.1289 47.1326 14.0208 47.4142 14.0397C47.7972 14.0653 48.1841 14.0464 48.569 14.0464V14.0445H48.5709Z"
        fill="white" />
    <path
        d="M79.9711 15.5434C79.9711 14.2625 79.9673 13.0888 79.9759 11.916C79.9768 11.7634 79.8754 11.5207 80.0583 11.4714C80.2973 11.4069 80.5684 11.4401 80.8216 11.4666C80.9221 11.477 80.8851 11.6183 80.8851 11.7027C80.887 13.4481 80.8841 15.1936 80.8898 16.939C80.8898 17.1305 80.8453 17.1912 80.6386 17.2121C80.1854 17.2576 79.9 17.1315 79.6488 16.7077C78.9064 15.4515 78.1024 14.2303 77.3221 12.994C77.1828 13.0376 77.2558 13.1447 77.2558 13.2168C77.2539 14.436 77.2491 15.6553 77.2662 16.8745C77.27 17.1504 77.1875 17.2197 76.9211 17.2121C76.3484 17.195 76.3475 17.2092 76.3475 16.648C76.3475 15.0305 76.356 13.414 76.3399 11.7966C76.3371 11.5007 76.4271 11.4609 76.7011 11.4372C77.1941 11.3946 77.4814 11.5576 77.7393 11.9938C78.4295 13.1628 79.1804 14.2967 79.9702 15.5444L79.9711 15.5434Z"
        fill="white" />
    <path
        d="M72.5034 17.3256C70.8054 17.317 69.5254 16.0201 69.5273 14.3087C69.5283 12.6429 70.8499 11.3175 72.5034 11.3213C74.2242 11.326 75.5184 12.6287 75.5127 14.3486C75.506 16.0513 74.21 17.3341 72.5034 17.3246V17.3256ZM74.5845 14.3362C74.5892 13.1047 73.7331 12.2116 72.5432 12.2049C71.3411 12.1983 70.4792 13.0667 70.466 14.3002C70.4517 15.5403 71.3259 16.4552 72.5262 16.4571C73.7037 16.46 74.5797 15.5564 74.5845 14.3353V14.3362Z"
        fill="white" />
    <path
        d="M50.912 14.3258C50.912 13.4659 50.9205 12.6059 50.9063 11.747C50.9025 11.5147 50.9594 11.4426 51.2021 11.4464C52.1644 11.4607 53.1277 11.4588 54.09 11.4464C54.3157 11.4436 54.4342 11.4853 54.3953 11.7365C54.382 11.8238 54.382 11.9176 54.3953 12.0058C54.4313 12.2523 54.346 12.3367 54.0853 12.3291C53.4311 12.3101 52.7759 12.3329 52.1218 12.3168C51.88 12.3101 51.8051 12.3869 51.826 12.6211C51.862 13.0383 51.6553 13.573 51.9113 13.8404C52.1322 14.0717 52.666 13.8897 53.0613 13.9029C53.2794 13.9105 53.5012 13.9276 53.7155 13.8991C54.0739 13.8508 54.1573 13.9883 54.1592 14.3362C54.1621 14.6918 54.0625 14.7904 53.7136 14.7704C53.1893 14.7392 52.6603 14.778 52.135 14.7553C51.8686 14.7439 51.8098 14.8397 51.8241 15.0805C51.8421 15.4133 51.8421 15.7479 51.826 16.0807C51.8165 16.2846 51.8819 16.3443 52.0838 16.3414C52.738 16.3301 53.3932 16.3471 54.0483 16.332C54.2986 16.3263 54.4124 16.367 54.4019 16.6581C54.382 17.2127 54.4019 17.2127 53.8558 17.2118C53.0215 17.2108 52.1862 17.1966 51.3529 17.2175C51.022 17.226 50.8873 17.1672 50.9025 16.7899C50.9366 15.9698 50.9129 15.1478 50.9129 14.3267L50.912 14.3258Z"
        fill="white" />
    <path
        d="M64.8638 14.7277C64.8638 14.0232 64.8524 13.3178 64.8695 12.6134C64.8752 12.3716 64.8013 12.3034 64.568 12.3157C64.2229 12.3347 63.8759 12.311 63.5299 12.3261C63.327 12.3347 63.2492 12.2674 63.2691 12.0654C63.2824 11.9384 63.2805 11.8085 63.2691 11.6814C63.253 11.4928 63.3336 11.4454 63.5156 11.4463C64.7207 11.4539 65.9257 11.4529 67.1307 11.4463C67.3004 11.4454 67.3412 11.4975 67.3507 11.6615C67.3886 12.3204 67.3952 12.3176 66.7278 12.3204C66.4225 12.3223 66.0233 12.2247 65.8375 12.3783C65.6384 12.5423 65.7778 12.9566 65.7759 13.26C65.7683 14.4641 65.7645 15.6691 65.7787 16.8732C65.7816 17.1453 65.7048 17.2202 65.4346 17.2126C64.8619 17.1955 64.861 17.2107 64.861 16.6494C64.861 16.0085 64.861 15.3676 64.861 14.7277H64.8638Z"
        fill="white" />
    <path
        d="M57.4557 14.776C57.4557 15.4805 57.4453 16.1859 57.4614 16.8903C57.4671 17.1434 57.3941 17.2468 57.1381 17.2089C57.05 17.1956 56.957 17.1946 56.8698 17.2089C56.6006 17.2506 56.5276 17.1453 56.5304 16.8751C56.5446 15.4786 56.5304 14.0811 56.5437 12.6846C56.5465 12.4087 56.4925 12.2882 56.1891 12.3138C55.8705 12.3413 55.5472 12.3053 55.2287 12.3243C54.9992 12.3385 54.9319 12.2503 54.9594 12.0389C54.9708 11.9507 54.9698 11.8588 54.9594 11.7706C54.9329 11.5345 54.9964 11.4378 55.2685 11.4425C56.4223 11.4606 57.5761 11.4568 58.73 11.4444C58.9689 11.4416 59.058 11.507 59.0258 11.744C59.0106 11.8569 59.0135 11.9754 59.0258 12.0891C59.0466 12.2816 58.9594 12.33 58.7812 12.3243C58.4484 12.3129 58.1128 12.3394 57.7819 12.3138C57.4984 12.292 57.4444 12.4039 57.45 12.6609C57.4662 13.3653 57.4557 14.0707 57.4557 14.7751V14.776Z"
        fill="white" />
    <path
        d="M62.5577 14.3789C62.5577 15.2114 62.5444 16.0447 62.5643 16.8772C62.5709 17.1578 62.4809 17.2194 62.2182 17.2137C61.639 17.2014 61.638 17.2147 61.638 16.6221C61.638 15.0208 61.6466 13.4195 61.6304 11.8181C61.6276 11.5072 61.7177 11.4313 62.0154 11.4436C62.5567 11.4664 62.5567 11.4484 62.5567 11.9964C62.5567 12.7909 62.5567 13.5844 62.5567 14.3789H62.5577Z"
        fill="white" />
</svg>
    