<svg width="162" height="36" viewBox="0 0 162 36" fill="none" xmlns="http://www.w3.org/2000/svg">
    <path
        d="M7.5134 6.98447C7.51347 7.63897 7.42229 8.29028 7.24249 8.91959C6.98182 9.81748 6.54309 10.6537 5.95241 11.3785L4.41722 11.0456L0 10.0832V0H0.51603C2.03015 0.00183552 3.50277 0.495109 4.7125 1.40567C5.92224 2.31622 6.80371 3.59486 7.22443 5.04936C7.41034 5.67781 7.5076 6.32913 7.5134 6.98447Z"
        fill="#3361AD" />
    <path
        d="M7.5134 20.5695C7.51247 21.7154 7.22954 22.8434 6.68958 23.854C6.14961 24.8646 5.36921 25.7268 4.41722 26.3646C3.26501 27.1422 1.90611 27.5565 0.51603 27.554H0V14.1553L4.41722 15.1177L5.04678 15.2544C5.81693 15.9093 6.43532 16.7239 6.85904 17.6417C7.28276 18.5596 7.50165 19.5586 7.5005 20.5695H7.5134Z"
        fill="#3361AD" />
    <path
        d="M18.385 8.07613C18.3837 9.64448 17.8555 11.1669 16.885 12.399C15.9145 13.631 14.5582 14.5012 13.0337 14.8697C12.6474 14.9624 12.2537 15.0211 11.8572 15.0451C11.9012 14.9418 11.9357 14.8347 11.9604 14.7252C11.9618 14.7166 11.9618 14.7079 11.9604 14.6994C12.1771 13.6364 11.3695 12.563 10.1543 12.2947L5.94863 11.3787L4.41602 11.0459V1.09424H11.4005C13.2524 1.09424 15.0286 1.82974 16.3383 3.13903C17.6481 4.44831 18.3843 6.22418 18.385 8.07613Z"
        fill="#27468D" />
    <path
        d="M20.2891 21.663C20.2978 22.5814 20.1211 23.4922 19.7695 24.3408C19.4179 25.1893 18.8988 25.9582 18.243 26.6014C17.5951 27.2508 16.8254 27.7658 15.9779 28.117C15.1304 28.4681 14.222 28.6484 13.3046 28.6475H4.41602V15.1171L5.04557 15.2539L9.30282 16.1827C9.48611 16.2213 9.67284 16.2412 9.86014 16.2421C10.2733 16.2581 10.6822 16.1534 11.0369 15.9408C11.3915 15.7282 11.6765 15.4169 11.8572 15.0449C11.9012 14.9416 11.9357 14.8345 11.9604 14.725C11.9618 14.7164 11.9618 14.7077 11.9604 14.6992C12.3242 14.7275 13.96 14.3457 14.3057 14.4411C17.3813 15.1636 20.1988 16.8329 20.2891 21.663Z"
        fill="#27468D" />
    <path
        d="M11.1263 14.2528C11.1271 14.4017 11.1009 14.5494 11.0489 14.6889C10.9997 14.8298 10.9244 14.9602 10.827 15.0733C10.7059 15.2154 10.5554 15.3295 10.3859 15.4077C10.2164 15.4859 10.032 15.5264 9.84527 15.5264C9.65859 15.5264 9.47413 15.4859 9.30463 15.4077C9.13513 15.3295 8.98463 15.2154 8.86352 15.0733C8.76623 14.9597 8.69019 14.8295 8.63904 14.6889C8.56781 14.5107 8.53724 14.3189 8.54952 14.1274C8.56181 13.9359 8.61666 13.7495 8.71008 13.5819C8.8035 13.4143 8.93313 13.2697 9.08954 13.1585C9.24594 13.0473 9.42518 12.9724 9.61418 12.9393C9.80319 12.9062 9.9972 12.9156 10.1821 12.9669C10.367 13.0183 10.5381 13.1102 10.683 13.2361C10.8278 13.3619 10.9428 13.5185 11.0195 13.6944C11.0962 13.8703 11.1327 14.061 11.1263 14.2528Z"
        fill="#3361AD" />
    <path
        d="M37.6548 15.4678C39.9279 14.5389 40.7897 12.2271 40.7897 10.163C40.7897 7.00488 38.7255 4.13574 33.2014 4.13574H24.9062V28.8278H34.4915C40.9909 28.8278 42.8073 25.4504 42.8073 21.7479C42.8073 18.6826 41.507 15.9141 37.6548 15.4678ZM29.6254 8.85743H33.0208C35.1985 8.85743 36.0706 9.40184 36.0706 11.1073C36.0706 12.8515 35.1985 13.3959 33.0208 13.3959H29.6254V8.85743ZM34.4915 23.7449H29.6254V18.1228H34.4915C37.033 18.1228 38.0857 18.6672 38.0857 20.9196C38.0857 23.1721 37.033 23.7449 34.4915 23.7449Z"
        fill="#3361AD" />
    <path
        d="M58.4039 10.1245V20.1097C58.4039 23.3788 57.279 24.1038 54.2757 24.1038C51.2724 24.1038 50.1475 23.3788 50.1475 20.1097V10.1245H45.4258V20.4735C45.4258 26.5369 48.7671 28.8254 54.286 28.8254C59.805 28.8254 63.1463 26.5369 63.1463 20.4735V10.1245H58.4039Z"
        fill="#3361AD" />
    <path
        d="M79.5755 3.41602V12.1885C78.3396 10.9191 76.5258 10.1244 74.3455 10.1244C68.646 10.1244 66.2129 14.1185 66.2129 19.4568C66.2129 24.7952 68.646 28.8253 74.3455 28.8253C76.5258 28.8253 78.3396 28.0255 79.5755 26.72V28.8253H84.2946V3.41602H79.5755ZM75.2537 24.1114C72.2401 24.1114 70.932 23.2058 70.932 19.4671C70.932 15.7646 72.2401 14.8564 75.2537 14.8564C78.2674 14.8564 79.5755 15.7646 79.5755 19.4671C79.5755 23.2006 78.2674 24.1063 75.2537 24.1063V24.1114Z"
        fill="#3361AD" />
    <path
        d="M101.105 10.1245V12.1215C100.016 11.105 98.4189 10.1245 95.8052 10.1245C90.3585 10.1245 87.7422 13.8657 87.7422 18.5487C87.7422 23.2704 90.3585 27.009 95.8052 27.009C98.4189 27.009 100.016 26.0286 101.105 25.012V29.9143H93.1321C92.5507 29.915 91.9932 30.1462 91.5821 30.5574C91.171 30.9685 90.9397 31.526 90.939 32.1074V32.4402C90.939 33.0221 91.17 33.5802 91.5812 33.9919C91.9924 34.4036 92.5502 34.6353 93.1321 34.636H105.816V10.1245H101.105ZM94.4635 32.7292C94.3702 32.9731 94.205 33.183 93.9899 33.3311C93.7747 33.4791 93.5197 33.5584 93.2586 33.5584C92.9974 33.5584 92.7424 33.4791 92.5272 33.3311C92.3121 33.183 92.1469 32.9731 92.0536 32.7292C91.9789 32.5339 91.9528 32.3232 91.9775 32.1156C92.0023 31.9079 92.0772 31.7093 92.1958 31.537C92.3144 31.3647 92.4731 31.2238 92.6582 31.1264C92.8433 31.0291 93.0494 30.9782 93.2586 30.9782C93.4677 30.9782 93.6738 31.0291 93.8589 31.1264C94.044 31.2238 94.2027 31.3647 94.3213 31.537C94.4399 31.7093 94.5148 31.9079 94.5395 32.1156C94.5643 32.3232 94.5382 32.5339 94.4635 32.7292ZM96.7856 22.2925C93.5888 22.2925 92.4639 21.3843 92.4639 18.5513C92.4639 15.757 93.5888 14.8488 96.7856 14.8488C99.9824 14.8488 101.105 15.757 101.105 18.5513C101.105 21.3843 99.9798 22.2925 96.7856 22.2925Z"
        fill="#3361AD" />
    <path
        d="M125.686 19.0956C125.686 14.0127 123.433 10.127 117.553 10.127C111.523 10.127 109.273 14.3042 109.273 19.4955C109.273 22.909 110.471 28.8279 118.859 28.8279C120.744 28.8637 122.626 28.6476 124.455 28.1854V23.5412C122.746 23.9467 120.992 24.1365 119.235 24.1062C115.822 24.1062 114.625 23.0896 114.225 21.268H125.686V19.0956ZM114.029 17.6429C114.248 15.682 115.301 14.8486 117.478 14.8486C119.731 14.8486 120.783 15.5737 120.928 17.6429H114.029Z"
        fill="#3361AD" />
    <path
        d="M140.469 14.8487V10.1244H135.489V3.41602H130.767V10.1244H127.867V14.8461H130.772V28.8253H140.469V24.1037H135.489V14.8487H140.469Z"
        fill="#3361AD" />
    <path
        d="M157.28 10.1245V18.4765C157.28 21.3817 155.972 22.2899 153.139 22.2899C150.306 22.2899 149.011 21.3817 149.011 18.4765V10.1245H144.289V18.6571C144.289 23.6316 146.542 27.009 152.241 27.009C154.421 27.009 156.199 26.2118 157.29 25.012V29.9143H148.944C148.362 29.9143 147.804 30.1453 147.392 30.5565C146.98 30.9677 146.749 31.5255 146.748 32.1074V32.4402C146.748 33.0226 146.979 33.5811 147.391 33.9929C147.803 34.4046 148.361 34.636 148.944 34.636H161.999V10.1245H157.28ZM150.314 32.7034C150.22 32.9474 150.055 33.1572 149.84 33.3053C149.625 33.4533 149.37 33.5326 149.109 33.5326C148.848 33.5326 148.593 33.4533 148.377 33.3053C148.162 33.1572 147.997 32.9474 147.904 32.7034C147.829 32.5081 147.803 32.2975 147.828 32.0898C147.853 31.8821 147.927 31.6835 148.046 31.5112C148.165 31.3389 148.323 31.198 148.508 31.1006C148.694 31.0033 148.9 30.9524 149.109 30.9524C149.318 30.9524 149.524 31.0033 149.709 31.1006C149.894 31.198 150.053 31.3389 150.172 31.5112C150.29 31.6835 150.365 31.8821 150.39 32.0898C150.415 32.2975 150.388 32.5081 150.314 32.7034Z"
        fill="#3361AD" />
    <path
        d="M25.8591 33.5061H25.1779V34.5975H24.9199V31.9012H25.9288C26.0389 31.8938 26.1495 31.9091 26.2535 31.9462C26.3575 31.9833 26.4528 32.0415 26.5334 32.117C26.6139 32.1925 26.6781 32.2838 26.7219 32.3851C26.7657 32.4865 26.7882 32.5958 26.788 32.7062C26.7912 32.8888 26.7297 33.0666 26.6145 33.2082C26.4993 33.3499 26.3378 33.4462 26.1584 33.4803L26.8215 34.5975H26.5041L25.8591 33.5061ZM25.1779 33.2481H25.903C25.9778 33.2532 26.0529 33.2429 26.1235 33.2178C26.1942 33.1927 26.259 33.1534 26.3138 33.1022C26.3686 33.051 26.4123 32.9891 26.4422 32.9203C26.4721 32.8516 26.4875 32.7774 26.4875 32.7024C26.4875 32.6274 26.4721 32.5532 26.4422 32.4844C26.4123 32.4156 26.3686 32.3537 26.3138 32.3025C26.259 32.2514 26.1942 32.212 26.1235 32.1869C26.0529 32.1618 25.9778 32.1515 25.903 32.1567H25.1779V33.2481Z"
        fill="#3361AD" />
    <path
        d="M29.2081 33.6558H27.3814C27.3976 33.8256 27.4676 33.9858 27.581 34.1132C27.6945 34.2406 27.8456 34.3285 28.0124 34.3641C28.1792 34.3998 28.3531 34.3814 28.5087 34.3115C28.6643 34.2417 28.7936 34.1241 28.8779 33.9758H29.154C29.0787 34.174 28.9442 34.3443 28.7688 34.4634C28.5934 34.5825 28.3855 34.6447 28.1735 34.6415C27.8861 34.6415 27.6105 34.5273 27.4072 34.3241C27.204 34.1208 27.0898 33.8452 27.0898 33.5578C27.0898 33.2704 27.204 32.9947 27.4072 32.7915C27.6105 32.5883 27.8861 32.4741 28.1735 32.4741C28.3135 32.4739 28.4521 32.5023 28.5808 32.5573C28.7095 32.6124 28.8256 32.6931 28.9222 32.7944C29.0187 32.8958 29.0936 33.0157 29.1423 33.147C29.1911 33.2782 29.2126 33.418 29.2056 33.5578C29.2133 33.6042 29.2107 33.6249 29.2081 33.6558ZM28.1761 32.7218C27.9821 32.7175 27.7936 32.7861 27.6479 32.9142C27.5021 33.0423 27.4098 33.2204 27.3891 33.4133H28.9553C28.9348 33.2226 28.8443 33.0463 28.7013 32.9186C28.5583 32.7908 28.373 32.7207 28.1813 32.7218H28.1761Z"
        fill="#3361AD" />
    <path
        d="M31.7021 31.7773V34.5974H31.5086L31.4725 34.244C31.3317 34.4157 31.1416 34.5401 30.9278 34.6002C30.714 34.6603 30.4869 34.6533 30.2772 34.58C30.0675 34.5068 29.8854 34.371 29.7555 34.1909C29.6256 34.0107 29.5542 33.795 29.5509 33.573C29.5476 33.3509 29.6127 33.1332 29.7372 32.9493C29.8617 32.7654 30.0397 32.6242 30.2472 32.5449C30.4546 32.4655 30.6814 32.4518 30.8968 32.5055C31.1123 32.5593 31.3061 32.678 31.4519 32.8455V31.7773H31.7021ZM31.457 33.5577C31.4555 33.3952 31.4059 33.2368 31.3146 33.1025C31.2232 32.9682 31.0941 32.8639 30.9436 32.8028C30.7931 32.7417 30.6278 32.7265 30.4687 32.7591C30.3096 32.7917 30.1636 32.8707 30.0493 32.9861C29.9349 33.1015 29.8573 33.2482 29.8262 33.4076C29.7951 33.5671 29.8118 33.7322 29.8743 33.8821C29.9368 34.0321 30.0423 34.1602 30.1775 34.2503C30.3127 34.3404 30.4715 34.3884 30.634 34.3885C30.7434 34.391 30.8522 34.3712 30.9537 34.3302C31.0552 34.2892 31.1473 34.228 31.2243 34.1502C31.3014 34.0725 31.3617 33.9798 31.4017 33.8779C31.4418 33.776 31.4606 33.6671 31.457 33.5577Z"
        fill="#3361AD" />
    <path
        d="M34.3058 33.6558H32.4791C32.4953 33.8256 32.5652 33.9858 32.6787 34.1132C32.7922 34.2406 32.9433 34.3285 33.1101 34.3641C33.2769 34.3998 33.4507 34.3814 33.6063 34.3115C33.762 34.2417 33.8913 34.1241 33.9755 33.9758H34.2516C34.1764 34.174 34.0419 34.3443 33.8665 34.4634C33.691 34.5825 33.4832 34.6447 33.2712 34.6415C32.9838 34.6415 32.7081 34.5273 32.5049 34.3241C32.3017 34.1208 32.1875 33.8452 32.1875 33.5578C32.1875 33.2704 32.3017 32.9947 32.5049 32.7915C32.7081 32.5883 32.9838 32.4741 33.2712 32.4741C33.4111 32.4739 33.5497 32.5023 33.6784 32.5573C33.8071 32.6124 33.9233 32.6931 34.0198 32.7944C34.1164 32.8958 34.1913 33.0157 34.24 33.147C34.2887 33.2782 34.3102 33.418 34.3032 33.5578C34.311 33.6042 34.3084 33.6249 34.3058 33.6558ZM33.2737 32.7218C33.0798 32.7175 32.8913 32.7861 32.7455 32.9142C32.5998 33.0423 32.5074 33.2204 32.4868 33.4133H34.0529C34.0325 33.2226 33.942 33.0463 33.799 32.9186C33.656 32.7908 33.4707 32.7207 33.2789 32.7218H33.2737Z"
        fill="#3361AD" />
    <path
        d="M35.8598 32.75H35.189V34.5974H34.931V32.75H34.5078V32.5281H34.931V32.3604C34.931 31.9037 35.1271 31.6973 35.5992 31.6973H35.8572V31.9088H35.6379C35.2999 31.9088 35.1761 32.0301 35.1761 32.3655V32.5281H35.8547L35.8598 32.75Z"
        fill="#3361AD" />
    <path
        d="M36.2266 31.7979H36.5233V32.123H36.2266V31.7979ZM36.2446 32.5151H36.5026V34.5947H36.2446V32.5151Z"
        fill="#3361AD" />
    <path
        d="M38.9917 33.3458V34.5869H38.7336V33.4052C38.7336 32.9588 38.5117 32.7034 38.1221 32.7034C38.0299 32.7061 37.939 32.727 37.8549 32.7649C37.7707 32.8029 37.6949 32.8571 37.6318 32.9245C37.5687 32.9919 37.5196 33.0712 37.4873 33.1576C37.455 33.2441 37.4401 33.3362 37.4436 33.4284V34.5869H37.1855V32.5073H37.3765L37.4281 32.8737C37.5098 32.7435 37.6244 32.637 37.7602 32.565C37.8961 32.493 38.0485 32.458 38.2021 32.4634C38.3136 32.4643 38.4237 32.4884 38.5253 32.5343C38.6269 32.5802 38.7178 32.6468 38.7922 32.7299C38.8665 32.813 38.9227 32.9107 38.957 33.0168C38.9914 33.1229 39.0032 33.235 38.9917 33.3458Z"
        fill="#3361AD" />
    <path
        d="M39.6309 31.7979H39.9302V32.123H39.6309V31.7979ZM39.6489 32.5151H39.9069V34.5947H39.6489V32.5151Z"
        fill="#3361AD" />
    <path
        d="M42.4077 33.3458V34.5869H42.1497V33.4052C42.1497 32.9588 41.9278 32.7034 41.5407 32.7034C41.4483 32.7061 41.3574 32.727 41.2731 32.7649C41.1888 32.8028 41.1128 32.857 41.0495 32.9244C40.9862 32.9917 40.9369 33.0709 40.9043 33.1574C40.8717 33.2439 40.8565 33.336 40.8596 33.4284V34.5869H40.6016V32.5073H40.7899L40.8415 32.8737C40.9233 32.7435 41.0378 32.637 41.1737 32.565C41.3095 32.493 41.4619 32.458 41.6156 32.4634C41.7272 32.4643 41.8373 32.4885 41.9391 32.5343C42.0408 32.5802 42.1318 32.6468 42.2064 32.7298C42.2809 32.8129 42.3373 32.9105 42.372 33.0166C42.4066 33.1227 42.4188 33.2348 42.4077 33.3458Z"
        fill="#3361AD" />
    <path
        d="M44.9623 32.5177V34.3006C44.9623 34.9714 44.5804 35.3817 43.9534 35.3817C43.7381 35.3981 43.5238 35.3387 43.3476 35.2138C43.1714 35.089 43.0444 34.9065 42.9885 34.6979H43.2465C43.3014 34.8365 43.3991 34.9539 43.5253 35.0332C43.6515 35.1125 43.7996 35.1496 43.9483 35.1391C44.053 35.1439 44.1574 35.1259 44.2545 35.0864C44.3516 35.0469 44.4389 34.9868 44.5105 34.9103C44.5821 34.8338 44.6363 34.7426 44.6693 34.6432C44.7023 34.5437 44.7133 34.4383 44.7017 34.3341V34.1612C44.6033 34.2778 44.4803 34.3711 44.3416 34.4345C44.2028 34.4978 44.0518 34.5297 43.8992 34.5276C43.6255 34.5276 43.363 34.4189 43.1695 34.2254C42.9759 34.0318 42.8672 33.7693 42.8672 33.4956C42.8672 33.2219 42.9759 32.9593 43.1695 32.7658C43.363 32.5723 43.6255 32.4635 43.8992 32.4635C44.0623 32.4608 44.2236 32.4974 44.3696 32.5701C44.5155 32.6429 44.6418 32.7497 44.7378 32.8815L44.7791 32.5074L44.9623 32.5177ZM44.7043 33.5033C44.7043 33.3502 44.6589 33.2006 44.5738 33.0733C44.4888 32.946 44.3679 32.8468 44.2264 32.7882C44.085 32.7296 43.9294 32.7143 43.7792 32.7441C43.6291 32.774 43.4911 32.8477 43.3829 32.956C43.2746 33.0642 43.2009 33.2022 43.171 33.3523C43.1412 33.5025 43.1565 33.6581 43.2151 33.7995C43.2737 33.941 43.3729 34.0619 43.5002 34.1469C43.6275 34.232 43.7771 34.2774 43.9302 34.2774C44.0326 34.2802 44.1346 34.2621 44.2298 34.2242C44.325 34.1863 44.4114 34.1294 44.4839 34.057C44.5563 33.9845 44.6132 33.8981 44.6511 33.8029C44.689 33.7077 44.7071 33.6057 44.7043 33.5033Z"
        fill="#3361AD" />
    <path
        d="M47.6137 33.5269V34.5976H47.3351V33.5269L46.334 31.9014H46.6307L47.477 33.2714L48.3259 31.9014H48.6226L47.6137 33.5269Z"
        fill="#3361AD" />
    <path
        d="M48.5941 33.5572C48.5915 33.3397 48.6537 33.1263 48.7728 32.9443C48.8918 32.7622 49.0623 32.6196 49.2626 32.5347C49.4629 32.4498 49.6839 32.4264 49.8975 32.4675C50.1111 32.5085 50.3077 32.6122 50.4623 32.7653C50.6168 32.9184 50.7223 33.114 50.7654 33.3272C50.8085 33.5404 50.7872 33.7616 50.7042 33.9627C50.6212 34.1638 50.4802 34.3356 50.2993 34.4564C50.1184 34.5772 49.9056 34.6414 49.6881 34.6409C49.5439 34.6459 49.4003 34.6213 49.266 34.5687C49.1317 34.5162 49.0096 34.4367 48.9071 34.3352C48.8047 34.2337 48.7241 34.1123 48.6702 33.9786C48.6164 33.8448 48.5905 33.7014 48.5941 33.5572ZM50.5189 33.5572C50.5189 33.3929 50.4701 33.2323 50.3789 33.0956C50.2876 32.959 50.1578 32.8525 50.006 32.7896C49.8542 32.7268 49.6871 32.7103 49.526 32.7424C49.3648 32.7744 49.2168 32.8536 49.1006 32.9697C48.9844 33.0859 48.9053 33.234 48.8732 33.3951C48.8412 33.5563 48.8576 33.7233 48.9205 33.8752C48.9834 34.027 49.0899 34.1567 49.2265 34.248C49.3631 34.3393 49.5237 34.388 49.6881 34.388C49.7981 34.3916 49.9078 34.3726 50.0102 34.3321C50.1126 34.2916 50.2056 34.2305 50.2835 34.1527C50.3614 34.0748 50.4225 33.9818 50.4629 33.8793C50.5034 33.7769 50.5225 33.6673 50.5189 33.5572Z"
        fill="#3361AD" />
    <path
        d="M51.263 33.7199V32.5176H51.521V33.6812C51.513 33.7708 51.5237 33.861 51.5525 33.9462C51.5812 34.0314 51.6274 34.1097 51.6881 34.176C51.7488 34.2424 51.8226 34.2954 51.9049 34.3316C51.9872 34.3679 52.0761 34.3866 52.166 34.3866C52.2559 34.3866 52.3449 34.3679 52.4272 34.3316C52.5094 34.2954 52.5833 34.2424 52.6439 34.176C52.7046 34.1097 52.7508 34.0314 52.7796 33.9462C52.8084 33.861 52.8191 33.7708 52.8111 33.6812V32.5176H53.0691V33.7199C53.0826 33.8466 53.0694 33.9748 53.0302 34.096C52.991 34.2173 52.9267 34.3289 52.8415 34.4237C52.7564 34.5184 52.6522 34.5942 52.5358 34.6461C52.4194 34.698 52.2934 34.7248 52.166 34.7248C52.0386 34.7248 51.9126 34.698 51.7962 34.6461C51.6798 34.5942 51.5757 34.5184 51.4905 34.4237C51.4053 34.3289 51.3411 34.2173 51.3019 34.096C51.2627 33.9748 51.2494 33.8466 51.263 33.7199Z"
        fill="#3361AD" />
    <path
        d="M54.8218 32.5073V32.7653H54.618C54.5283 32.7624 54.4391 32.779 54.3565 32.8138C54.2738 32.8486 54.1997 32.9009 54.1391 32.9671C54.0786 33.0333 54.0331 33.1118 54.0057 33.1972C53.9784 33.2826 53.9698 33.373 53.9807 33.462V34.605H53.7227V32.5254H53.911L53.9549 32.8814C54.0267 32.7652 54.1281 32.6701 54.2487 32.6058C54.3692 32.5414 54.5046 32.5101 54.6412 32.5151L54.8218 32.5073Z"
        fill="#3361AD" />
    <path
        d="M57.1586 32.75H56.4878V34.5974H56.2298V32.75H55.8066V32.5281H56.2298V32.3604C56.2298 31.9037 56.4259 31.6973 56.898 31.6973H57.1561V31.9088H56.9419C56.6039 31.9088 56.4801 32.0301 56.4801 32.3655V32.5281H57.1586V32.75Z"
        fill="#3361AD" />
    <path
        d="M57.5234 31.7979H57.8253V32.123H57.526L57.5234 31.7979ZM57.5441 32.5151H57.8021V34.5947H57.5441V32.5151Z"
        fill="#3361AD" />
    <path
        d="M60.3002 33.3458V34.5869H60.0422V33.4052C60.0422 32.9588 59.8203 32.7034 59.4307 32.7034C59.3385 32.7061 59.2476 32.727 59.1634 32.7649C59.0793 32.8029 59.0035 32.8571 58.9404 32.9245C58.8773 32.9919 58.8282 33.0712 58.7959 33.1576C58.7636 33.2441 58.7487 33.3362 58.7522 33.4284V34.5869H58.4941V32.5073H58.6851L58.7367 32.8737C58.8184 32.7435 58.933 32.637 59.0688 32.565C59.2047 32.493 59.3571 32.458 59.5107 32.4634C59.6222 32.4643 59.7323 32.4884 59.8339 32.5343C59.9355 32.5802 60.0264 32.6468 60.1008 32.7299C60.1751 32.813 60.2312 32.9107 60.2656 33.0168C60.3 33.1229 60.3118 33.235 60.3002 33.3458Z"
        fill="#3361AD" />
    <path
        d="M62.9535 32.5179V34.5975H62.7291L62.6981 34.226C62.5991 34.3589 62.4696 34.466 62.3205 34.5383C62.1714 34.6107 62.0071 34.646 61.8415 34.6414C61.5541 34.6414 61.2784 34.5272 61.0752 34.324C60.872 34.1208 60.7578 33.8451 60.7578 33.5577C60.7578 33.2703 60.872 32.9947 61.0752 32.7915C61.2784 32.5882 61.5541 32.4741 61.8415 32.4741C62.0078 32.4693 62.1728 32.5048 62.3224 32.5776C62.472 32.6504 62.6018 32.7583 62.7007 32.892L62.7368 32.5179H62.9535ZM62.6955 33.55C62.6998 33.4406 62.6816 33.3315 62.642 33.2295C62.6024 33.1274 62.5423 33.0346 62.4654 32.9567C62.3885 32.8788 62.2964 32.8176 62.1948 32.7767C62.0933 32.7358 61.9844 32.7163 61.875 32.7192C61.6547 32.7192 61.4434 32.8067 61.2876 32.9625C61.1317 33.1183 61.0442 33.3296 61.0442 33.55C61.0442 33.7703 61.1317 33.9816 61.2876 34.1374C61.4434 34.2933 61.6547 34.3808 61.875 34.3808C61.983 34.3822 62.0902 34.3618 62.1901 34.3208C62.2901 34.2798 62.3807 34.2191 62.4566 34.1422C62.5325 34.0654 62.5921 33.974 62.6318 33.8736C62.6715 33.7731 62.6906 33.6657 62.6878 33.5577L62.6955 33.55Z"
        fill="#3361AD" />
    <path
        d="M65.4506 33.3458V34.5869H65.1926V33.4052C65.1926 32.9588 64.9733 32.7034 64.5837 32.7034C64.4913 32.7061 64.4003 32.727 64.316 32.7649C64.2317 32.8028 64.1558 32.857 64.0925 32.9244C64.0292 32.9917 63.9798 33.0709 63.9472 33.1574C63.9146 33.2439 63.8994 33.336 63.9025 33.4284V34.5869H63.6445V32.5073H63.8329L63.8845 32.8737C63.9662 32.7435 64.0808 32.637 64.2166 32.565C64.3525 32.493 64.5049 32.458 64.6585 32.4634C64.7701 32.4643 64.8803 32.4885 64.982 32.5343C65.0838 32.5802 65.1748 32.6468 65.2493 32.7298C65.3239 32.8129 65.3803 32.9105 65.415 33.0166C65.4496 33.1227 65.4618 33.2348 65.4506 33.3458Z"
        fill="#3361AD" />
    <path
        d="M65.9262 33.5574C65.9223 33.4147 65.9474 33.2727 66 33.14C66.0526 33.0073 66.1316 32.8866 66.2322 32.7853C66.3328 32.684 66.4529 32.6041 66.5852 32.5506C66.7175 32.497 66.8594 32.4709 67.0021 32.4737C67.2244 32.4661 67.443 32.5324 67.6236 32.6621C67.8043 32.7919 67.9369 32.9779 68.0006 33.191H67.7426C67.6805 33.0484 67.5769 32.9279 67.4452 32.845C67.3136 32.7622 67.1601 32.7209 67.0047 32.7266C66.7843 32.7266 66.573 32.8141 66.4172 32.9699C66.2614 33.1257 66.1739 33.3371 66.1739 33.5574C66.1739 33.7777 66.2614 33.9891 66.4172 34.1449C66.573 34.3007 66.7843 34.3882 67.0047 34.3882C67.1613 34.393 67.3156 34.3503 67.4474 34.2655C67.5792 34.1807 67.6821 34.058 67.7426 33.9135H68.0006C67.9347 34.1271 67.8012 34.3135 67.6202 34.4447C67.4392 34.576 67.2205 34.6449 66.9969 34.6411C66.8547 34.6428 66.7136 34.6159 66.5821 34.5619C66.4505 34.5079 66.3312 34.428 66.2312 34.3268C66.1313 34.2257 66.0527 34.1054 66.0003 33.9732C65.9479 33.841 65.9227 33.6996 65.9262 33.5574Z"
        fill="#3361AD" />
    <path
        d="M68.4531 31.7979H68.7524V32.123H68.4531V31.7979ZM68.4712 32.5151H68.7292V34.5947H68.4712V32.5151Z"
        fill="#3361AD" />
    <path
        d="M71.4204 32.5179V34.5975H71.2036L71.1727 34.226C71.0737 34.3589 70.9442 34.466 70.7951 34.5383C70.646 34.6107 70.4817 34.646 70.3161 34.6414C70.0287 34.6414 69.753 34.5272 69.5498 34.324C69.3466 34.1208 69.2324 33.8451 69.2324 33.5577C69.2324 33.2703 69.3466 32.9947 69.5498 32.7915C69.753 32.5882 70.0287 32.4741 70.3161 32.4741C70.4824 32.4693 70.6474 32.5048 70.797 32.5776C70.9466 32.6504 71.0763 32.7583 71.1753 32.892L71.2114 32.5179H71.4204ZM71.1624 33.55C71.1666 33.4406 71.1484 33.3315 71.1088 33.2295C71.0693 33.1274 71.0091 33.0346 70.9322 32.9567C70.8553 32.8788 70.7632 32.8176 70.6617 32.7767C70.5601 32.7358 70.4513 32.7163 70.3419 32.7192C70.1215 32.7192 69.9102 32.8067 69.7544 32.9625C69.5986 33.1183 69.5111 33.3296 69.5111 33.55C69.5111 33.7703 69.5986 33.9816 69.7544 34.1374C69.9102 34.2933 70.1215 34.3808 70.3419 34.3808C70.4499 34.3822 70.5571 34.3618 70.657 34.3208C70.7569 34.2798 70.8476 34.2191 70.9234 34.1422C70.9993 34.0654 71.0589 33.974 71.0987 33.8736C71.1384 33.7731 71.1574 33.6657 71.1546 33.5577L71.1624 33.55Z"
        fill="#3361AD" />
    <path d="M72.1055 31.7773H72.3635V34.5974H72.1055V31.7773Z" fill="#3361AD" />
    <path
        d="M76.144 31.9014V34.5976H75.886V33.3462H74.3869V34.6105H74.1289V31.9014H74.3869V33.0882H75.886V31.9014H76.144Z"
        fill="#3361AD" />
    <path
        d="M78.8481 32.5177V34.5973H78.6314L78.6004 34.2258C78.5009 34.3577 78.3712 34.4639 78.2221 34.5353C78.0731 34.6067 77.909 34.6412 77.7438 34.636C77.4564 34.636 77.1808 34.5218 76.9776 34.3186C76.7743 34.1154 76.6602 33.8398 76.6602 33.5523C76.6602 33.2649 76.7743 32.9893 76.9776 32.7861C77.1808 32.5829 77.4564 32.4687 77.7438 32.4687C77.9101 32.4639 78.0751 32.4995 78.2247 32.5723C78.3743 32.645 78.5041 32.7529 78.603 32.8867L78.6391 32.5126L78.8481 32.5177ZM78.5901 33.5498C78.5944 33.4404 78.5762 33.3313 78.5366 33.2293C78.497 33.1272 78.4369 33.0344 78.36 32.9565C78.2831 32.8786 78.191 32.8173 78.0894 32.7765C77.9879 32.7356 77.879 32.7161 77.7696 32.719C77.5493 32.719 77.338 32.8065 77.1822 32.9623C77.0263 33.1181 76.9388 33.3294 76.9388 33.5498C76.9388 33.7701 77.0263 33.9814 77.1822 34.1372C77.338 34.2931 77.5493 34.3806 77.7696 34.3806C77.8776 34.382 77.9848 34.3616 78.0847 34.3206C78.1847 34.2796 78.2753 34.2189 78.3512 34.142C78.4271 34.0652 78.4867 33.9738 78.5264 33.8734C78.5661 33.7729 78.5852 33.6655 78.5824 33.5575L78.5901 33.5498Z"
        fill="#3361AD" />
    <path
        d="M81.6876 33.5577C81.689 33.7806 81.621 33.9984 81.4932 34.1811C81.3653 34.3637 81.1839 34.5021 80.974 34.5772C80.7641 34.6522 80.5361 34.6603 80.3214 34.6001C80.1067 34.54 79.9161 34.4146 79.7757 34.2414L79.737 34.5974H79.5332V31.7773H79.7912V32.8481C79.8924 32.7283 80.019 32.6326 80.1618 32.5679C80.3047 32.5032 80.4601 32.4711 80.6169 32.474C80.7601 32.4684 80.9029 32.4928 81.0362 32.5454C81.1694 32.5981 81.2903 32.6779 81.391 32.7799C81.4918 32.8818 81.5701 33.0036 81.6212 33.1375C81.6723 33.2714 81.6949 33.4145 81.6876 33.5577ZM81.4296 33.5577C81.4359 33.4459 81.4193 33.334 81.3808 33.2288C81.3423 33.1237 81.2828 33.0275 81.2059 32.9461C81.129 32.8648 81.0363 32.7999 80.9334 32.7557C80.8306 32.7114 80.7198 32.6885 80.6078 32.6885C80.4959 32.6885 80.3851 32.7114 80.2822 32.7557C80.1794 32.7999 80.0867 32.8648 80.0098 32.9461C79.9328 33.0275 79.8733 33.1237 79.8349 33.2288C79.7964 33.334 79.7798 33.4459 79.7861 33.5577C79.7833 33.6669 79.8026 33.7755 79.8429 33.8771C79.8831 33.9786 79.9435 34.071 80.0204 34.1486C80.0973 34.2262 80.1891 34.2875 80.2903 34.3287C80.3914 34.3699 80.4999 34.3902 80.6091 34.3885C80.7178 34.3899 80.8256 34.3693 80.9261 34.3278C81.0266 34.2864 81.1175 34.2249 81.1935 34.1472C81.2695 34.0696 81.329 33.9772 81.3682 33.8759C81.4075 33.7745 81.4257 33.6663 81.4219 33.5577H81.4296Z"
        fill="#3361AD" />
    <path
        d="M82.1836 31.7979H82.4829V32.123H82.1836V31.7979ZM82.2016 32.5151H82.4597V34.5947H82.2016V32.5151Z"
        fill="#3361AD" />
    <path
        d="M84.1942 34.3549V34.5975H83.9362C83.8431 34.605 83.7494 34.5921 83.6617 34.5596C83.5741 34.5272 83.4946 34.476 83.4287 34.4097C83.3629 34.3434 83.3123 34.2635 83.2806 34.1756C83.2488 34.0877 83.2366 33.9939 83.2447 33.9009V32.7553H82.8887V32.7037L83.4615 32.1128H83.5079V32.5179H84.1813V32.7553H83.5079V33.8931C83.501 33.9552 83.5081 34.0181 83.5287 34.0771C83.5493 34.1361 83.5829 34.1897 83.627 34.234C83.671 34.2783 83.7245 34.3122 83.7833 34.3331C83.8422 34.3541 83.905 34.3615 83.9672 34.3549H84.1942Z"
        fill="#3361AD" />
</svg>
    