<svg width="162" height="36" viewBox="0 0 162 36" fill="none" xmlns="http://www.w3.org/2000/svg">
    <path
        d="M7.51389 6.98447C7.51396 7.63897 7.42278 8.29028 7.24298 8.91959C6.98231 9.81748 6.54357 10.6537 5.9529 11.3785L4.41771 11.0456L0.000488281 10.0832V0H0.516519C2.03064 0.00183552 3.50326 0.495109 4.71299 1.40567C5.92272 2.31622 6.8042 3.59486 7.22491 5.04936C7.41083 5.67781 7.50809 6.32913 7.51389 6.98447Z"
        fill="white" />
    <path
        d="M7.51389 20.5693C7.51296 21.7151 7.23003 22.8431 6.69006 23.8538C6.1501 24.8644 5.36969 25.7266 4.41771 26.3643C3.2655 27.142 1.9066 27.5563 0.516519 27.5538H0.000488281V14.155L4.41771 15.1174L5.04727 15.2542C5.81741 15.909 6.43581 16.7236 6.85953 17.6415C7.28325 18.5593 7.50214 19.5584 7.50099 20.5693H7.51389Z"
        fill="white" />
    <path
        d="M18.3854 8.07589C18.3842 9.64424 17.856 11.1667 16.8855 12.3987C15.915 13.6308 14.5587 14.5009 13.0342 14.8694C12.6479 14.9621 12.2542 15.0208 11.8577 15.0449C11.9017 14.9416 11.9362 14.8345 11.9609 14.7249C11.9623 14.7164 11.9623 14.7077 11.9609 14.6991C12.1776 13.6361 11.37 12.5628 10.1548 12.2944L5.94911 11.3785L4.4165 11.0456V1.09399H11.401C13.2529 1.09399 15.0291 1.8295 16.3388 3.13879C17.6486 4.44807 18.3848 6.22394 18.3854 8.07589Z"
        fill="white" />
    <path
        d="M20.2896 21.663C20.2983 22.5814 20.1216 23.4922 19.77 24.3408C19.4184 25.1893 18.8992 25.9582 18.2435 26.6014C17.5956 27.2508 16.8259 27.7658 15.9784 28.117C15.1309 28.4681 14.2225 28.6484 13.3051 28.6475H4.4165V15.1171L5.04606 15.2539L9.30331 16.1827C9.4866 16.2213 9.67333 16.2412 9.86063 16.2421C10.2738 16.2581 10.6827 16.1534 11.0373 15.9408C11.392 15.7282 11.677 15.4169 11.8577 15.0449C11.9017 14.9416 11.9362 14.8345 11.9609 14.725C11.9623 14.7164 11.9623 14.7077 11.9609 14.6992C12.3247 14.7275 13.9605 14.3457 14.3062 14.4411C17.3818 15.1636 20.1993 16.8329 20.2896 21.663Z"
        fill="white" />
    <path
        d="M11.1268 14.2528C11.1276 14.4017 11.1014 14.5494 11.0494 14.6889C11.0002 14.8298 10.9249 14.9602 10.8275 15.0733C10.7064 15.2154 10.5559 15.3295 10.3864 15.4077C10.2169 15.4859 10.0324 15.5264 9.84576 15.5264C9.65908 15.5264 9.47462 15.4859 9.30512 15.4077C9.13562 15.3295 8.98512 15.2154 8.86401 15.0733C8.76672 14.9597 8.69067 14.8295 8.63953 14.6889C8.5683 14.5107 8.53772 14.3189 8.55001 14.1274C8.5623 13.9359 8.61715 13.7495 8.71057 13.5819C8.80399 13.4143 8.93362 13.2697 9.09003 13.1585C9.24643 13.0473 9.42567 12.9724 9.61467 12.9393C9.80368 12.9062 9.99769 12.9156 10.1826 12.9669C10.3675 13.0183 10.5386 13.1102 10.6835 13.2361C10.8283 13.3619 10.9433 13.5185 11.02 13.6944C11.0967 13.8703 11.1332 14.061 11.1268 14.2528Z"
        fill="white" />
    <path
        d="M37.6553 15.4679C39.9284 14.539 40.7902 12.2272 40.7902 10.1631C40.7902 7.00501 38.726 4.13586 33.2019 4.13586H24.9067V28.8279H34.492C40.9914 28.8279 42.8078 25.4505 42.8078 21.748C42.8078 18.6828 41.5074 15.9143 37.6553 15.4679ZM29.6258 8.85755H33.0213C35.199 8.85755 36.0711 9.40196 36.0711 11.1074C36.0711 12.8516 35.199 13.396 33.0213 13.396H29.6258V8.85755ZM34.492 23.745H29.6258V18.1229H34.492C37.0335 18.1229 38.0862 18.6673 38.0862 20.9198C38.0862 23.1722 37.0335 23.745 34.492 23.745Z"
        fill="white" />
    <path
        d="M58.4044 10.1246V20.1098C58.4044 23.3789 57.2795 24.1039 54.2762 24.1039C51.2729 24.1039 50.1479 23.3789 50.1479 20.1098V10.1246H45.4263V20.4736C45.4263 26.537 48.7676 28.8256 54.2865 28.8256C59.8055 28.8256 63.1468 26.537 63.1468 20.4736V10.1246H58.4044Z"
        fill="white" />
    <path
        d="M79.576 3.41614V12.1887C78.3401 10.9192 76.5263 10.1245 74.346 10.1245C68.6465 10.1245 66.2134 14.1186 66.2134 19.4569C66.2134 24.7953 68.6465 28.8255 74.346 28.8255C76.5263 28.8255 78.3401 28.0256 79.576 26.7201V28.8255H84.2951V3.41614H79.576ZM75.2542 24.1115C72.2406 24.1115 70.9325 23.2059 70.9325 19.4673C70.9325 15.7648 72.2406 14.8565 75.2542 14.8565C78.2678 14.8565 79.576 15.7648 79.576 19.4673C79.576 23.2008 78.2678 24.1064 75.2542 24.1064V24.1115Z"
        fill="white" />
    <path
        d="M101.105 10.1246V12.1217C100.016 11.1051 98.4193 10.1246 95.8057 10.1246C90.3589 10.1246 87.7427 13.8659 87.7427 18.5488C87.7427 23.2705 90.3589 27.0091 95.8057 27.0091C98.4193 27.0091 100.016 26.0287 101.105 25.0121V29.9144H93.1326C92.5512 29.9151 91.9937 30.1464 91.5826 30.5575C91.1714 30.9686 90.9402 31.5261 90.9395 32.1075V32.4404C90.9395 33.0223 91.1705 33.5804 91.5817 33.9921C91.9929 34.4038 92.5507 34.6354 93.1326 34.6361H105.817V10.1246H101.105ZM94.464 32.7293C94.3707 32.9733 94.2055 33.1831 93.9904 33.3312C93.7752 33.4792 93.5202 33.5585 93.259 33.5585C92.9979 33.5585 92.7429 33.4792 92.5277 33.3312C92.3126 33.1831 92.1474 32.9733 92.0541 32.7293C91.9794 32.534 91.9533 32.3234 91.978 32.1157C92.0028 31.908 92.0777 31.7094 92.1963 31.5371C92.3149 31.3648 92.4736 31.2239 92.6587 31.1266C92.8438 31.0292 93.0499 30.9784 93.259 30.9784C93.4682 30.9784 93.6742 31.0292 93.8594 31.1266C94.0445 31.2239 94.2032 31.3648 94.3218 31.5371C94.4404 31.7094 94.5153 31.908 94.54 32.1157C94.5648 32.3234 94.5387 32.534 94.464 32.7293ZM96.7861 22.2926C93.5893 22.2926 92.4644 21.3844 92.4644 18.5514C92.4644 15.7571 93.5893 14.8489 96.7861 14.8489C99.9829 14.8489 101.105 15.7571 101.105 18.5514C101.105 21.3844 99.9803 22.2926 96.7861 22.2926Z"
        fill="white" />
    <path
        d="M125.686 19.0958C125.686 14.0129 123.434 10.1272 117.554 10.1272C111.524 10.1272 109.274 14.3045 109.274 19.4957C109.274 22.9093 110.471 28.8281 118.859 28.8281C120.745 28.8639 122.627 28.6479 124.456 28.1857V23.5414C122.746 23.9469 120.993 24.1368 119.236 24.1065C115.822 24.1065 114.625 23.0899 114.225 21.2683H125.686V19.0958ZM114.029 17.6432C114.248 15.6823 115.301 14.8489 117.479 14.8489C119.731 14.8489 120.784 15.5739 120.928 17.6432H114.029Z"
        fill="white" />
    <path
        d="M140.469 14.8489V10.1247H135.489V3.41626H130.768V10.1247H127.868V14.8463H130.773V28.8256H140.469V24.1039H135.489V14.8489H140.469Z"
        fill="white" />
    <path
        d="M157.281 10.1246V18.4766C157.281 21.3818 155.972 22.2901 153.139 22.2901C150.306 22.2901 149.011 21.3818 149.011 18.4766V10.1246H144.29V18.6572C144.29 23.6317 146.542 27.0091 152.242 27.0091C154.422 27.0091 156.2 26.2119 157.291 25.0121V29.9144H148.944C148.362 29.9144 147.804 30.1454 147.392 30.5566C146.981 30.9678 146.749 31.5256 146.748 32.1075V32.4404C146.748 33.0227 146.98 33.5812 147.392 33.993C147.803 34.4048 148.362 34.6361 148.944 34.6361H162V10.1246H157.281ZM150.314 32.7035C150.221 32.9475 150.056 33.1573 149.841 33.3054C149.625 33.4534 149.37 33.5327 149.109 33.5327C148.848 33.5327 148.593 33.4534 148.378 33.3054C148.163 33.1573 147.998 32.9475 147.904 32.7035C147.83 32.5082 147.804 32.2976 147.828 32.0899C147.853 31.8822 147.928 31.6836 148.047 31.5113C148.165 31.339 148.324 31.1981 148.509 31.1008C148.694 31.0034 148.9 30.9526 149.109 30.9526C149.318 30.9526 149.524 31.0034 149.71 31.1008C149.895 31.1981 150.053 31.339 150.172 31.5113C150.291 31.6836 150.366 31.8822 150.39 32.0899C150.415 32.2976 150.389 32.5082 150.314 32.7035Z"
        fill="white" />
    <path
        d="M25.8596 33.5058H25.1784V34.5972H24.9204V31.901H25.9293C26.0394 31.8936 26.15 31.9089 26.254 31.946C26.358 31.9831 26.4533 32.0412 26.5338 32.1167C26.6144 32.1922 26.6786 32.2835 26.7224 32.3849C26.7662 32.4863 26.7887 32.5956 26.7884 32.706C26.7916 32.8885 26.7302 33.0663 26.615 33.208C26.4998 33.3496 26.3383 33.446 26.1589 33.48L26.822 34.5972H26.5046L25.8596 33.5058ZM25.1784 33.2478H25.9034C25.9783 33.253 26.0533 33.2427 26.124 33.2176C26.1947 33.1925 26.2594 33.1531 26.3143 33.102C26.3691 33.0508 26.4128 32.9889 26.4427 32.9201C26.4726 32.8513 26.488 32.7771 26.488 32.7021C26.488 32.6271 26.4726 32.5529 26.4427 32.4842C26.4128 32.4154 26.3691 32.3535 26.3143 32.3023C26.2594 32.2511 26.1947 32.2118 26.124 32.1867C26.0533 32.1616 25.9783 32.1513 25.9034 32.1564H25.1784V33.2478Z"
        fill="white" />
    <path
        d="M29.2086 33.6558H27.3819C27.3981 33.8256 27.4681 33.9858 27.5815 34.1132C27.695 34.2406 27.8461 34.3285 28.0129 34.3641C28.1797 34.3998 28.3535 34.3814 28.5092 34.3115C28.6648 34.2417 28.7941 34.1241 28.8784 33.9758H29.1545C29.0792 34.174 28.9447 34.3443 28.7693 34.4634C28.5939 34.5825 28.386 34.6447 28.174 34.6415C27.8866 34.6415 27.611 34.5273 27.4077 34.3241C27.2045 34.1208 27.0903 33.8452 27.0903 33.5578C27.0903 33.2704 27.2045 32.9947 27.4077 32.7915C27.611 32.5883 27.8866 32.4741 28.174 32.4741C28.314 32.4739 28.4525 32.5023 28.5812 32.5573C28.7099 32.6124 28.8261 32.6931 28.9226 32.7944C29.0192 32.8958 29.0941 33.0157 29.1428 33.147C29.1915 33.2782 29.2131 33.418 29.2061 33.5578C29.2138 33.6042 29.2112 33.6249 29.2086 33.6558ZM28.1766 32.7218C27.9826 32.7175 27.7941 32.7861 27.6484 32.9142C27.5026 33.0423 27.4103 33.2204 27.3896 33.4133H28.9558C28.9353 33.2226 28.8448 33.0463 28.7018 32.9186C28.5588 32.7908 28.3735 32.7207 28.1817 32.7218H28.1766Z"
        fill="white" />
    <path
        d="M31.7026 31.7772V34.5973H31.5091L31.473 34.2438C31.3322 34.4156 31.142 34.54 30.9283 34.6001C30.7145 34.6602 30.4874 34.6531 30.2777 34.5799C30.068 34.5067 29.8859 34.3709 29.756 34.1907C29.6261 34.0106 29.5547 33.7949 29.5514 33.5728C29.5481 33.3508 29.6131 33.1331 29.7377 32.9492C29.8622 32.7653 30.0402 32.6241 30.2476 32.5447C30.4551 32.4654 30.6819 32.4516 30.8973 32.5054C31.1128 32.5592 31.3066 32.6779 31.4524 32.8454V31.7772H31.7026ZM31.4575 33.5575C31.456 33.3951 31.4064 33.2367 31.3151 33.1024C31.2237 32.9681 31.0946 32.8638 30.9441 32.8027C30.7936 32.7415 30.6283 32.7263 30.4692 32.759C30.31 32.7916 30.1641 32.8706 30.0498 32.986C29.9354 33.1014 29.8578 33.2481 29.8267 33.4075C29.7955 33.567 29.8123 33.7321 29.8748 33.882C29.9373 34.032 30.0428 34.16 30.178 34.2501C30.3132 34.3402 30.472 34.3883 30.6344 34.3883C30.7439 34.3908 30.8527 34.371 30.9542 34.3301C31.0557 34.2891 31.1478 34.2279 31.2248 34.1501C31.3019 34.0723 31.3622 33.9797 31.4022 33.8778C31.4422 33.7759 31.4611 33.6669 31.4575 33.5575Z"
        fill="white" />
    <path
        d="M34.3063 33.6558H32.4795C32.4958 33.8256 32.5657 33.9858 32.6792 34.1132C32.7927 34.2406 32.9438 34.3285 33.1106 34.3641C33.2774 34.3998 33.4512 34.3814 33.6068 34.3115C33.7625 34.2417 33.8918 34.1241 33.976 33.9758H34.2521C34.1769 34.174 34.0424 34.3443 33.8669 34.4634C33.6915 34.5825 33.4837 34.6447 33.2716 34.6415C32.9842 34.6415 32.7086 34.5273 32.5054 34.3241C32.3022 34.1208 32.188 33.8452 32.188 33.5578C32.188 33.2704 32.3022 32.9947 32.5054 32.7915C32.7086 32.5883 32.9842 32.4741 33.2716 32.4741C33.4116 32.4739 33.5502 32.5023 33.6789 32.5573C33.8076 32.6124 33.9238 32.6931 34.0203 32.7944C34.1168 32.8958 34.1917 33.0157 34.2405 33.147C34.2892 33.2782 34.3107 33.418 34.3037 33.5578C34.3114 33.6042 34.3089 33.6249 34.3063 33.6558ZM33.2742 32.7218C33.0803 32.7175 32.8918 32.7861 32.746 32.9142C32.6003 33.0423 32.5079 33.2204 32.4873 33.4133H34.0534C34.033 33.2226 33.9425 33.0463 33.7995 32.9186C33.6565 32.7908 33.4711 32.7207 33.2794 32.7218H33.2742Z"
        fill="white" />
    <path
        d="M35.8603 32.7497H35.1895V34.5971H34.9314V32.7497H34.5083V32.5278H34.9314V32.3601C34.9314 31.9034 35.1275 31.697 35.5997 31.697H35.8577V31.9086H35.6384C35.3004 31.9086 35.1766 32.0299 35.1766 32.3653V32.5278H35.8551L35.8603 32.7497Z"
        fill="white" />
    <path
        d="M36.2271 31.7979H36.5238V32.123H36.2271V31.7979ZM36.2451 32.5151H36.5031V34.5947H36.2451V32.5151Z"
        fill="white" />
    <path
        d="M38.9921 33.3461V34.5871H38.7341V33.4054C38.7341 32.9591 38.5122 32.7036 38.1226 32.7036C38.0303 32.7063 37.9395 32.7272 37.8553 32.7652C37.7712 32.8031 37.6954 32.8574 37.6323 32.9248C37.5692 32.9922 37.5201 33.0714 37.4878 33.1579C37.4555 33.2444 37.4406 33.3364 37.4441 33.4287V34.5871H37.186V32.5075H37.377L37.4286 32.8739C37.5103 32.7437 37.6249 32.6373 37.7607 32.5653C37.8966 32.4933 38.049 32.4582 38.2026 32.4637C38.3141 32.4645 38.4242 32.4887 38.5258 32.5346C38.6274 32.5804 38.7183 32.6471 38.7926 32.7302C38.867 32.8133 38.9231 32.911 38.9575 33.017C38.9919 33.1231 39.0037 33.2352 38.9921 33.3461Z"
        fill="white" />
    <path
        d="M39.6313 31.7979H39.9306V32.123H39.6313V31.7979ZM39.6494 32.5151H39.9074V34.5947H39.6494V32.5151Z"
        fill="white" />
    <path
        d="M42.4082 33.3461V34.5871H42.1501V33.4054C42.1501 32.9591 41.9283 32.7036 41.5412 32.7036C41.4488 32.7063 41.3579 32.7272 41.2736 32.7651C41.1893 32.803 41.1133 32.8572 41.05 32.9246C40.9867 32.992 40.9373 33.0712 40.9048 33.1577C40.8722 33.2442 40.857 33.3363 40.8601 33.4287V34.5871H40.6021V32.5075H40.7904L40.842 32.8739C40.9238 32.7437 41.0383 32.6373 41.1742 32.5653C41.31 32.4933 41.4624 32.4582 41.6161 32.4637C41.7276 32.4646 41.8378 32.4887 41.9395 32.5346C42.0413 32.5804 42.1323 32.647 42.2069 32.7301C42.2814 32.8131 42.3378 32.9108 42.3725 33.0169C42.4071 33.1229 42.4193 33.2351 42.4082 33.3461Z"
        fill="white" />
    <path
        d="M44.9628 32.5178V34.3007C44.9628 34.9715 44.5809 35.3818 43.9539 35.3818C43.7386 35.3982 43.5243 35.3388 43.3481 35.214C43.1719 35.0891 43.0449 34.9066 42.9889 34.698H43.247C43.3019 34.8366 43.3996 34.954 43.5258 35.0333C43.6519 35.1127 43.8001 35.1498 43.9488 35.1393C44.0534 35.144 44.1579 35.126 44.255 35.0865C44.3521 35.047 44.4394 34.9869 44.511 34.9104C44.5826 34.8339 44.6368 34.7428 44.6698 34.6433C44.7028 34.5438 44.7138 34.4384 44.7022 34.3343V34.1614C44.6038 34.2779 44.4808 34.3713 44.3421 34.4346C44.2033 34.498 44.0523 34.5298 43.8997 34.5278C43.626 34.5278 43.3635 34.419 43.17 34.2255C42.9764 34.0319 42.8677 33.7694 42.8677 33.4957C42.8677 33.222 42.9764 32.9595 43.17 32.7659C43.3635 32.5724 43.626 32.4636 43.8997 32.4636C44.0628 32.4609 44.2241 32.4975 44.37 32.5703C44.516 32.643 44.6423 32.7498 44.7383 32.8816L44.7796 32.5075L44.9628 32.5178ZM44.7048 33.5034C44.7048 33.3503 44.6593 33.2007 44.5743 33.0734C44.4892 32.9461 44.3684 32.8469 44.2269 32.7883C44.0855 32.7297 43.9298 32.7144 43.7797 32.7443C43.6295 32.7741 43.4916 32.8479 43.3834 32.9561C43.2751 33.0644 43.2014 33.2023 43.1715 33.3524C43.1417 33.5026 43.157 33.6582 43.2156 33.7997C43.2742 33.9411 43.3734 34.062 43.5007 34.147C43.628 34.2321 43.7776 34.2775 43.9307 34.2775C44.0331 34.2803 44.135 34.2623 44.2302 34.2244C44.3254 34.1865 44.4119 34.1296 44.4844 34.0571C44.5568 33.9846 44.6137 33.8982 44.6516 33.803C44.6895 33.7078 44.7076 33.6059 44.7048 33.5034Z"
        fill="white" />
    <path
        d="M47.6142 33.5266V34.5974H47.3356V33.5266L46.3345 31.9011H46.6312L47.4775 33.2712L48.3264 31.9011H48.6231L47.6142 33.5266Z"
        fill="white" />
    <path
        d="M48.5946 33.5575C48.592 33.3399 48.6542 33.1266 48.7732 32.9445C48.8923 32.7624 49.0628 32.6199 49.2631 32.535C49.4634 32.4501 49.6844 32.4267 49.898 32.4677C50.1116 32.5088 50.3082 32.6124 50.4628 32.7655C50.6173 32.9186 50.7228 33.1142 50.7659 33.3274C50.809 33.5407 50.7877 33.7619 50.7047 33.963C50.6217 34.164 50.4807 34.3359 50.2998 34.4566C50.1189 34.5774 49.9061 34.6416 49.6886 34.6411C49.5444 34.6461 49.4008 34.6215 49.2665 34.569C49.1322 34.5164 49.0101 34.4369 48.9076 34.3354C48.8052 34.234 48.7246 34.1126 48.6707 33.9788C48.6169 33.845 48.591 33.7016 48.5946 33.5575ZM50.5194 33.5575C50.5194 33.3931 50.4706 33.2325 50.3793 33.0959C50.2881 32.9593 50.1583 32.8528 50.0065 32.7899C49.8547 32.727 49.6876 32.7106 49.5265 32.7426C49.3653 32.7747 49.2173 32.8538 49.1011 32.97C48.9849 33.0862 48.9058 33.2342 48.8737 33.3954C48.8417 33.5565 48.8581 33.7236 48.921 33.8754C48.9839 34.0272 49.0904 34.157 49.227 34.2483C49.3636 34.3395 49.5242 34.3883 49.6886 34.3883C49.7986 34.3919 49.9083 34.3728 50.0107 34.3323C50.1131 34.2919 50.2061 34.2308 50.284 34.1529C50.3619 34.075 50.4229 33.982 50.4634 33.8796C50.5039 33.7772 50.5229 33.6675 50.5194 33.5575Z"
        fill="white" />
    <path
        d="M51.2635 33.7198V32.5175H51.5215V33.6811C51.5135 33.7707 51.5242 33.8609 51.5529 33.9461C51.5817 34.0313 51.6279 34.1096 51.6886 34.1759C51.7493 34.2423 51.8231 34.2952 51.9054 34.3315C51.9877 34.3678 52.0766 34.3865 52.1665 34.3865C52.2564 34.3865 52.3454 34.3678 52.4276 34.3315C52.5099 34.2952 52.5838 34.2423 52.6444 34.1759C52.7051 34.1096 52.7513 34.0313 52.7801 33.9461C52.8089 33.8609 52.8196 33.7707 52.8116 33.6811V32.5175H53.0696V33.7198C53.0831 33.8465 53.0699 33.9746 53.0307 34.0959C52.9915 34.2171 52.9272 34.3288 52.842 34.4235C52.7569 34.5183 52.6527 34.5941 52.5363 34.646C52.4199 34.6979 52.2939 34.7247 52.1665 34.7247C52.0391 34.7247 51.9131 34.6979 51.7967 34.646C51.6803 34.5941 51.5762 34.5183 51.491 34.4235C51.4058 34.3288 51.3416 34.2171 51.3024 34.0959C51.2631 33.9746 51.2499 33.8465 51.2635 33.7198Z"
        fill="white" />
    <path
        d="M54.8223 32.5073V32.7653H54.6185C54.5288 32.7624 54.4396 32.779 54.357 32.8138C54.2743 32.8486 54.2002 32.9009 54.1396 32.9671C54.0791 33.0333 54.0336 33.1118 54.0062 33.1972C53.9789 33.2826 53.9703 33.373 53.9812 33.462V34.605H53.7231V32.5254H53.9115L53.9554 32.8814C54.0272 32.7652 54.1286 32.6701 54.2491 32.6058C54.3697 32.5414 54.5051 32.5101 54.6417 32.5151L54.8223 32.5073Z"
        fill="white" />
    <path
        d="M57.1591 32.7497H56.4883V34.5971H56.2303V32.7497H55.8071V32.5278H56.2303V32.3601C56.2303 31.9034 56.4264 31.697 56.8985 31.697H57.1565V31.9086H56.9424C56.6044 31.9086 56.4805 32.0299 56.4805 32.3653V32.5278H57.1591V32.7497Z"
        fill="white" />
    <path
        d="M57.5239 31.7979H57.8258V32.123H57.5265L57.5239 31.7979ZM57.5446 32.5151H57.8026V34.5947H57.5446V32.5151Z"
        fill="white" />
    <path
        d="M60.3007 33.346V34.587H60.0427V33.4053C60.0427 32.9589 59.8208 32.7035 59.4312 32.7035C59.3389 32.7062 59.2481 32.7271 59.1639 32.765C59.0798 32.803 59.004 32.8572 58.9409 32.9246C58.8778 32.992 58.8287 33.0713 58.7964 33.1578C58.7641 33.2443 58.7492 33.3363 58.7526 33.4285V34.587H58.4946V32.5074H58.6856L58.7372 32.8738C58.8189 32.7436 58.9335 32.6371 59.0693 32.5651C59.2052 32.4931 59.3576 32.4581 59.5112 32.4636C59.6227 32.4644 59.7328 32.4885 59.8344 32.5344C59.936 32.5803 60.0269 32.647 60.1012 32.7301C60.1756 32.8131 60.2317 32.9108 60.2661 33.0169C60.3004 33.123 60.3122 33.2351 60.3007 33.346Z"
        fill="white" />
    <path
        d="M62.954 32.5179V34.5975H62.7295L62.6986 34.226C62.5996 34.3589 62.4701 34.466 62.321 34.5383C62.1719 34.6107 62.0076 34.646 61.842 34.6414C61.5546 34.6414 61.2789 34.5272 61.0757 34.324C60.8725 34.1208 60.7583 33.8451 60.7583 33.5577C60.7583 33.2703 60.8725 32.9947 61.0757 32.7915C61.2789 32.5882 61.5546 32.4741 61.842 32.4741C62.0083 32.4693 62.1732 32.5048 62.3228 32.5776C62.4725 32.6504 62.6022 32.7583 62.7012 32.892L62.7373 32.5179H62.954ZM62.696 33.55C62.7003 33.4406 62.6821 33.3315 62.6425 33.2295C62.6029 33.1274 62.5428 33.0346 62.4659 32.9567C62.389 32.8788 62.2969 32.8176 62.1953 32.7767C62.0938 32.7358 61.9849 32.7163 61.8755 32.7192C61.6552 32.7192 61.4438 32.8067 61.288 32.9625C61.1322 33.1183 61.0447 33.3296 61.0447 33.55C61.0447 33.7703 61.1322 33.9816 61.288 34.1374C61.4438 34.2933 61.6552 34.3808 61.8755 34.3808C61.9835 34.3822 62.0907 34.3618 62.1906 34.3208C62.2906 34.2798 62.3812 34.2191 62.4571 34.1422C62.533 34.0654 62.5926 33.974 62.6323 33.8736C62.672 33.7731 62.691 33.6657 62.6883 33.5577L62.696 33.55Z"
        fill="white" />
    <path
        d="M65.4511 33.346V34.587H65.1931V33.4053C65.1931 32.9589 64.9738 32.7035 64.5842 32.7035C64.4918 32.7062 64.4008 32.7271 64.3165 32.765C64.2322 32.8029 64.1563 32.8571 64.093 32.9245C64.0297 32.9919 63.9803 33.0711 63.9477 33.1576C63.9151 33.2441 63.8999 33.3362 63.903 33.4285V34.587H63.645V32.5074H63.8334L63.885 32.8738C63.9667 32.7436 64.0813 32.6371 64.2171 32.5651C64.353 32.4931 64.5054 32.4581 64.659 32.4636C64.7706 32.4644 64.8808 32.4886 64.9825 32.5344C65.0843 32.5803 65.1753 32.6469 65.2498 32.7299C65.3244 32.813 65.3808 32.9107 65.4154 33.0167C65.4501 33.1228 65.4623 33.2349 65.4511 33.346Z"
        fill="white" />
    <path
        d="M65.9267 33.5574C65.9228 33.4147 65.9479 33.2727 66.0005 33.14C66.0531 33.0073 66.1321 32.8866 66.2327 32.7853C66.3333 32.684 66.4534 32.6041 66.5857 32.5506C66.718 32.497 66.8598 32.4709 67.0026 32.4737C67.2249 32.4661 67.4435 32.5324 67.6241 32.6621C67.8048 32.7919 67.9373 32.9779 68.0011 33.191H67.7431C67.681 33.0484 67.5774 32.9279 67.4457 32.845C67.3141 32.7622 67.1606 32.7209 67.0052 32.7266C66.7848 32.7266 66.5735 32.8141 66.4177 32.9699C66.2619 33.1257 66.1743 33.3371 66.1743 33.5574C66.1743 33.7777 66.2619 33.9891 66.4177 34.1449C66.5735 34.3007 66.7848 34.3882 67.0052 34.3882C67.1618 34.393 67.3161 34.3503 67.4479 34.2655C67.5796 34.1807 67.6826 34.058 67.7431 33.9135H68.0011C67.9352 34.1271 67.8017 34.3135 67.6207 34.4447C67.4397 34.576 67.2209 34.6449 66.9974 34.6411C66.8552 34.6428 66.7141 34.6159 66.5826 34.5619C66.451 34.5079 66.3317 34.428 66.2317 34.3268C66.1318 34.2257 66.0532 34.1054 66.0008 33.9732C65.9484 33.841 65.9232 33.6996 65.9267 33.5574Z"
        fill="white" />
    <path
        d="M68.4536 31.7979H68.7529V32.123H68.4536V31.7979ZM68.4717 32.5151H68.7297V34.5947H68.4717V32.5151Z"
        fill="white" />
    <path
        d="M71.4209 32.5179V34.5975H71.2041L71.1732 34.226C71.0742 34.3589 70.9447 34.466 70.7956 34.5383C70.6465 34.6107 70.4822 34.646 70.3166 34.6414C70.0292 34.6414 69.7535 34.5272 69.5503 34.324C69.3471 34.1208 69.2329 33.8451 69.2329 33.5577C69.2329 33.2703 69.3471 32.9947 69.5503 32.7915C69.7535 32.5882 70.0292 32.4741 70.3166 32.4741C70.4829 32.4693 70.6478 32.5048 70.7974 32.5776C70.947 32.6504 71.0768 32.7583 71.1758 32.892L71.2119 32.5179H71.4209ZM71.1629 33.55C71.1671 33.4406 71.1489 33.3315 71.1093 33.2295C71.0697 33.1274 71.0096 33.0346 70.9327 32.9567C70.8558 32.8788 70.7637 32.8176 70.6622 32.7767C70.5606 32.7358 70.4518 32.7163 70.3424 32.7192C70.122 32.7192 69.9107 32.8067 69.7549 32.9625C69.5991 33.1183 69.5116 33.3296 69.5116 33.55C69.5116 33.7703 69.5991 33.9816 69.7549 34.1374C69.9107 34.2933 70.122 34.3808 70.3424 34.3808C70.4504 34.3822 70.5575 34.3618 70.6575 34.3208C70.7574 34.2798 70.848 34.2191 70.9239 34.1422C70.9998 34.0654 71.0594 33.974 71.0991 33.8736C71.1389 33.7731 71.1579 33.6657 71.1551 33.5577L71.1629 33.55Z"
        fill="white" />
    <path d="M72.106 31.7772H72.364V34.5973H72.106V31.7772Z" fill="white" />
    <path
        d="M76.1445 31.9011V34.5974H75.8865V33.346H74.3874V34.6103H74.1294V31.9011H74.3874V33.088H75.8865V31.9011H76.1445Z"
        fill="white" />
    <path
        d="M78.8486 32.5176V34.5972H78.6319L78.6009 34.2256C78.5014 34.3576 78.3717 34.4638 78.2226 34.5352C78.0735 34.6066 77.9095 34.6411 77.7443 34.6359C77.4569 34.6359 77.1813 34.5217 76.978 34.3185C76.7748 34.1153 76.6606 33.8396 76.6606 33.5522C76.6606 33.2648 76.7748 32.9892 76.978 32.786C77.1813 32.5827 77.4569 32.4686 77.7443 32.4686C77.9106 32.4638 78.0756 32.4994 78.2252 32.5721C78.3748 32.6449 78.5046 32.7528 78.6035 32.8865L78.6396 32.5124L78.8486 32.5176ZM78.5906 33.5496C78.5949 33.4403 78.5767 33.3312 78.5371 33.2291C78.4975 33.1271 78.4374 33.0342 78.3605 32.9564C78.2836 32.8785 78.1915 32.8172 78.0899 32.7764C77.9884 32.7355 77.8795 32.7159 77.7701 32.7188C77.5498 32.7188 77.3385 32.8064 77.1826 32.9622C77.0268 33.118 76.9393 33.3293 76.9393 33.5496C76.9393 33.77 77.0268 33.9813 77.1826 34.1371C77.3385 34.2929 77.5498 34.3805 77.7701 34.3805C77.8781 34.3819 77.9853 34.3615 78.0852 34.3205C78.1852 34.2795 78.2758 34.2188 78.3517 34.1419C78.4276 34.0651 78.4872 33.9737 78.5269 33.8732C78.5666 33.7728 78.5856 33.6654 78.5829 33.5574L78.5906 33.5496Z"
        fill="white" />
    <path
        d="M81.6881 33.5575C81.6894 33.7805 81.6215 33.9983 81.4937 34.1809C81.3658 34.3636 81.1844 34.502 80.9745 34.5771C80.7646 34.6521 80.5366 34.6601 80.3219 34.6C80.1072 34.5398 79.9166 34.4145 79.7762 34.2413L79.7375 34.5973H79.5337V31.7772H79.7917V32.848C79.8929 32.7282 80.0195 32.6325 80.1623 32.5678C80.3051 32.503 80.4606 32.471 80.6174 32.4739C80.7606 32.4683 80.9034 32.4926 81.0366 32.5453C81.1699 32.598 81.2908 32.6778 81.3915 32.7798C81.4922 32.8817 81.5706 33.0035 81.6217 33.1374C81.6728 33.2713 81.6954 33.4144 81.6881 33.5575ZM81.4301 33.5575C81.4364 33.4457 81.4198 33.3338 81.3813 33.2287C81.3428 33.1235 81.2833 33.0273 81.2064 32.946C81.1295 32.8646 81.0367 32.7998 80.9339 32.7555C80.8311 32.7112 80.7203 32.6884 80.6083 32.6884C80.4964 32.6884 80.3856 32.7112 80.2827 32.7555C80.1799 32.7998 80.0872 32.8646 80.0103 32.946C79.9333 33.0273 79.8738 33.1235 79.8354 33.2287C79.7969 33.3338 79.7803 33.4457 79.7865 33.5575C79.7837 33.6667 79.8031 33.7754 79.8433 33.8769C79.8836 33.9785 79.944 34.0709 80.0209 34.1485C80.0978 34.2261 80.1896 34.2873 80.2907 34.3286C80.3919 34.3698 80.5004 34.3901 80.6096 34.3883C80.7183 34.3898 80.8261 34.3692 80.9266 34.3277C81.027 34.2863 81.118 34.2248 81.194 34.1471C81.27 34.0694 81.3295 33.9771 81.3687 33.8758C81.408 33.7744 81.4262 33.6661 81.4224 33.5575H81.4301Z"
        fill="white" />
    <path
        d="M82.1841 31.7979H82.4834V32.123H82.1841V31.7979ZM82.2021 32.5151H82.4601V34.5947H82.2021V32.5151Z"
        fill="white" />
    <path
        d="M84.1947 34.3549V34.5975H83.9367C83.8435 34.605 83.7499 34.5921 83.6622 34.5596C83.5746 34.5272 83.4951 34.476 83.4292 34.4097C83.3634 34.3434 83.3128 34.2635 83.281 34.1756C83.2493 34.0877 83.237 33.9939 83.2452 33.9009V32.7553H82.8892V32.7037L83.4619 32.1128H83.5084V32.5179H84.1818V32.7553H83.5084V33.8931C83.5015 33.9552 83.5086 34.0181 83.5292 34.0771C83.5498 34.1361 83.5834 34.1897 83.6274 34.234C83.6715 34.2783 83.7249 34.3122 83.7838 34.3331C83.8427 34.3541 83.9055 34.3615 83.9677 34.3549H84.1947Z"
        fill="white" />
</svg>
    