<svg width="82" height="82" viewBox="0 0 82 82" fill="none" xmlns="http://www.w3.org/2000/svg">
    <path
        d="M62.5107 69.1806C62.8607 68.5743 59.9231 58.1325 59.3633 57.9563C59.0676 57.8958 58.5024 58.0472 58.0592 58.3058C57.3031 58.7879 57.3528 59.1473 58.8259 64.2972C60.3425 69.4354 60.4791 69.7715 61.34 69.6806C61.885 69.6278 62.3834 69.4011 62.5107 69.1806Z"
        fill="white" />
    <path
        d="M74.0817 60.0232C74.75 58.8656 74.2624 58.4372 69.3132 55.6165C66.5572 54.0253 64.9417 53.3866 64.455 53.6568C62.7977 54.427 63.7472 55.7101 67.8812 58.0969C72.7985 60.9727 73.4134 61.1807 74.0817 60.0232Z"
        fill="white" />
    <path
        d="M50.3381 62.704C52.5541 58.8021 52.8459 57.9785 52.2597 57.5298C50.9454 56.624 50.1171 57.3584 47.6147 61.7564C45.0688 66.166 44.8446 67.7636 46.7838 67.5236C47.4592 67.4358 48.4721 65.9996 50.3381 62.704Z"
        fill="white" />
    <path
        d="M58.0302 50.7196C58.1947 50.1164 34.0611 14.6493 33.5829 14.7774C33.3338 14.8907 32.2293 17.3766 31.1109 20.332L29.0619 25.7267L19.4276 20.2011L9.78153 14.6319L6.18546 20.8605L2.62122 27.034L12.2672 32.6031C17.5588 35.6582 21.9366 38.2592 21.9715 38.3896C22.0064 38.52 20.3593 40.5455 18.2806 42.873C16.257 45.2324 14.6331 47.3449 14.6479 47.5739C14.7178 47.8347 19.5192 48.3653 25.312 48.77C31.1483 49.1631 40.8319 49.8299 46.9205 50.2951C52.9974 50.7169 57.9898 50.9168 58.0302 50.7196Z"
        fill="white" />
    <path
        d="M76.2203 45.0528C76.4499 43.1276 75.6961 43.0966 70.0447 44.6108C64.4369 46.1135 63.7996 46.5172 64.9176 48.0813C65.2747 48.5448 66.353 48.3956 70.7436 47.2191C75.1778 46.031 76.1861 45.6211 76.2203 45.0528Z"
        fill="white" />
    <path
        d="M64.957 37.4475C66.8665 34.1403 67.4532 32.6785 67.0961 32.2151C66.1233 30.845 64.7563 32.0034 62.2539 36.4013C59.7515 40.7993 59.4838 42.4086 61.423 42.1685C62.0549 42.0924 63.1547 40.6329 64.957 37.4475Z"
        fill="white" />
</svg>
    