<svg width="120" height="24" viewBox="0 0 120 24" fill="none" xmlns="http://www.w3.org/2000/svg">
    <path
        d="M12.4127 17.8781L17.1377 20.8781C17.7471 21.2625 18.4971 20.6906 18.319 19.9875L16.9502 14.6063C16.9132 14.4571 16.9191 14.3005 16.9672 14.1546C17.0153 14.0086 17.1037 13.8792 17.2221 13.7813L21.4596 10.2469C22.0127 9.78752 21.7315 8.8594 21.0096 8.81252L15.4784 8.45627C15.3274 8.44749 15.1823 8.39494 15.0608 8.30503C14.9393 8.21513 14.8466 8.09177 14.794 7.95002L12.7315 2.75627C12.6769 2.60618 12.5774 2.47653 12.4466 2.38491C12.3158 2.29329 12.16 2.24414 12.0002 2.24414C11.8405 2.24414 11.6847 2.29329 11.5539 2.38491C11.423 2.47653 11.3236 2.60618 11.269 2.75627L9.20649 7.95002C9.15392 8.09177 9.06121 8.21513 8.93967 8.30503C8.81813 8.39494 8.67304 8.44749 8.52212 8.45627L2.99087 8.81252C2.26899 8.8594 1.98774 9.78752 2.54087 10.2469L6.77837 13.7813C6.8968 13.8792 6.98516 14.0086 7.03327 14.1546C7.08137 14.3005 7.08725 14.4571 7.05024 14.6063L5.78462 19.5938C5.56899 20.4375 6.46899 21.1219 7.19087 20.6625L11.5877 17.8781C11.711 17.7997 11.8541 17.7581 12.0002 17.7581C12.1464 17.7581 12.2894 17.7997 12.4127 17.8781Z"
        fill="white" stroke="#525C7A" stroke-width="1.5" stroke-linecap="round"
        stroke-linejoin="round" />
    <path
        d="M36.4127 17.8781L41.1377 20.8781C41.7471 21.2625 42.4971 20.6906 42.319 19.9875L40.9502 14.6063C40.9132 14.4571 40.9191 14.3005 40.9672 14.1546C41.0153 14.0086 41.1037 13.8792 41.2221 13.7813L45.4596 10.2469C46.0127 9.78752 45.7315 8.8594 45.0096 8.81252L39.4784 8.45627C39.3274 8.44749 39.1823 8.39494 39.0608 8.30503C38.9393 8.21513 38.8466 8.09177 38.794 7.95002L36.7315 2.75627C36.6769 2.60618 36.5774 2.47653 36.4466 2.38491C36.3158 2.29329 36.16 2.24414 36.0002 2.24414C35.8405 2.24414 35.6847 2.29329 35.5539 2.38491C35.423 2.47653 35.3236 2.60618 35.269 2.75627L33.2065 7.95002C33.1539 8.09177 33.0612 8.21513 32.9397 8.30503C32.8181 8.39494 32.673 8.44749 32.5221 8.45627L26.9909 8.81252C26.269 8.8594 25.9877 9.78752 26.5409 10.2469L30.7784 13.7813C30.8968 13.8792 30.9852 14.0086 31.0333 14.1546C31.0814 14.3005 31.0873 14.4571 31.0502 14.6063L29.7846 19.5938C29.569 20.4375 30.469 21.1219 31.1909 20.6625L35.5877 17.8781C35.711 17.7997 35.8541 17.7581 36.0002 17.7581C36.1464 17.7581 36.2894 17.7997 36.4127 17.8781Z"
        fill="white" stroke="#525C7A" stroke-width="1.5" stroke-linecap="round"
        stroke-linejoin="round" />
    <path
        d="M60.4127 17.8781L65.1377 20.8781C65.7471 21.2625 66.4971 20.6906 66.319 19.9875L64.9502 14.6063C64.9132 14.4571 64.9191 14.3005 64.9672 14.1546C65.0153 14.0086 65.1037 13.8792 65.2221 13.7813L69.4596 10.2469C70.0127 9.78752 69.7315 8.8594 69.0096 8.81252L63.4784 8.45627C63.3274 8.44749 63.1823 8.39494 63.0608 8.30503C62.9393 8.21513 62.8466 8.09177 62.794 7.95002L60.7315 2.75627C60.6769 2.60618 60.5774 2.47653 60.4466 2.38491C60.3158 2.29329 60.16 2.24414 60.0002 2.24414C59.8405 2.24414 59.6847 2.29329 59.5539 2.38491C59.423 2.47653 59.3236 2.60618 59.269 2.75627L57.2065 7.95002C57.1539 8.09177 57.0612 8.21513 56.9397 8.30503C56.8181 8.39494 56.673 8.44749 56.5221 8.45627L50.9909 8.81252C50.269 8.8594 49.9877 9.78752 50.5409 10.2469L54.7784 13.7813C54.8968 13.8792 54.9852 14.0086 55.0333 14.1546C55.0814 14.3005 55.0873 14.4571 55.0502 14.6063L53.7846 19.5938C53.569 20.4375 54.469 21.1219 55.1909 20.6625L59.5877 17.8781C59.711 17.7997 59.8541 17.7581 60.0002 17.7581C60.1464 17.7581 60.2894 17.7997 60.4127 17.8781Z"
        fill="white" stroke="#525C7A" stroke-width="1.5" stroke-linecap="round"
        stroke-linejoin="round" />
    <path
        d="M84.4127 17.8781L89.1377 20.8781C89.7471 21.2625 90.4971 20.6906 90.319 19.9875L88.9502 14.6063C88.9132 14.4571 88.9191 14.3005 88.9672 14.1546C89.0153 14.0086 89.1037 13.8792 89.2221 13.7813L93.4596 10.2469C94.0127 9.78752 93.7315 8.8594 93.0096 8.81252L87.4784 8.45627C87.3274 8.44749 87.1823 8.39494 87.0608 8.30503C86.9393 8.21513 86.8466 8.09177 86.794 7.95002L84.7315 2.75627C84.6769 2.60618 84.5774 2.47653 84.4466 2.38491C84.3158 2.29329 84.16 2.24414 84.0002 2.24414C83.8405 2.24414 83.6847 2.29329 83.5539 2.38491C83.423 2.47653 83.3236 2.60618 83.269 2.75627L81.2065 7.95002C81.1539 8.09177 81.0612 8.21513 80.9397 8.30503C80.8181 8.39494 80.673 8.44749 80.5221 8.45627L74.9909 8.81252C74.269 8.8594 73.9877 9.78752 74.5409 10.2469L78.7784 13.7813C78.8968 13.8792 78.9852 14.0086 79.0333 14.1546C79.0814 14.3005 79.0873 14.4571 79.0502 14.6063L77.7846 19.5938C77.569 20.4375 78.469 21.1219 79.1909 20.6625L83.5877 17.8781C83.711 17.7997 83.8541 17.7581 84.0002 17.7581C84.1464 17.7581 84.2894 17.7997 84.4127 17.8781Z"
        fill="white" stroke="#525C7A" stroke-width="1.5" stroke-linecap="round"
        stroke-linejoin="round" />
    <path
        d="M108.413 17.8781L113.138 20.8781C113.747 21.2625 114.497 20.6906 114.319 19.9875L112.95 14.6063C112.913 14.4571 112.919 14.3005 112.967 14.1546C113.015 14.0086 113.104 13.8792 113.222 13.7813L117.46 10.2469C118.013 9.78752 117.731 8.8594 117.01 8.81252L111.478 8.45627C111.327 8.44749 111.182 8.39494 111.061 8.30503C110.939 8.21513 110.847 8.09177 110.794 7.95002L108.731 2.75627C108.677 2.60618 108.577 2.47653 108.447 2.38491C108.316 2.29329 108.16 2.24414 108 2.24414C107.841 2.24414 107.685 2.29329 107.554 2.38491C107.423 2.47653 107.324 2.60618 107.269 2.75627L105.206 7.95002C105.154 8.09177 105.061 8.21513 104.94 8.30503C104.818 8.39494 104.673 8.44749 104.522 8.45627L98.9909 8.81252C98.269 8.8594 97.9877 9.78752 98.5409 10.2469L102.778 13.7813C102.897 13.8792 102.985 14.0086 103.033 14.1546C103.081 14.3005 103.087 14.4571 103.05 14.6063L101.785 19.5938C101.569 20.4375 102.469 21.1219 103.191 20.6625L107.588 17.8781C107.711 17.7997 107.854 17.7581 108 17.7581C108.146 17.7581 108.289 17.7997 108.413 17.8781V17.8781Z"
        stroke="#525C7A" stroke-width="1.5" stroke-linecap="round" stroke-linejoin="round" />
</svg>
    