<svg width="70" height="100" viewBox="0 0 70 100" fill="none" xmlns="http://www.w3.org/2000/svg">
<path d="M25.8803 24.3774C25.8892 29.9009 23.9922 35.2583 20.5094 39.5453L15.2434 38.397L0 35.0766V0.298348H1.78485C4.94984 0.295759 8.08428 0.91724 11.0088 2.12723C13.9334 3.33723 16.5907 5.11198 18.8287 7.34996C21.0667 9.58795 22.8414 12.2452 24.0514 15.1698C25.2614 18.0944 25.8829 21.2288 25.8803 24.3938V24.3774Z" fill="#3361AD"/>
<path d="M25.8803 71.2427C25.8807 74.4071 25.2578 77.5406 24.047 80.4641C22.8363 83.3877 21.0614 86.0442 18.8239 88.2817C16.5863 90.5193 13.9299 92.2941 11.0063 93.5049C8.0827 94.7156 4.94923 95.3386 1.78485 95.3382H0V49.1125L15.2434 52.4329L17.4121 52.9054C20.0699 55.1641 22.2041 57.9745 23.6664 61.1411C25.1288 64.3077 25.8842 67.7547 25.8803 71.2427Z" fill="#3361AD"/>
<path d="M63.4343 28.144C63.4426 34.2648 61.1178 40.1586 56.9332 44.6255C52.7485 49.0923 47.0187 51.7964 40.9104 52.187C41.0654 51.831 41.1851 51.4606 41.2681 51.0813C41.2751 51.0521 41.2806 51.0225 41.2845 50.9927C42.0293 47.3213 39.2437 43.6204 35.0178 42.6984L20.5094 39.5454L15.2434 38.3971V4.04858H39.3389C45.7294 4.04858 51.8581 6.5872 56.3769 11.106C60.8957 15.6247 63.4343 21.7535 63.4343 28.144Z" fill="#27468D"/>
<path d="M69.9963 75.0094C70.1177 81.6632 67.2993 87.6871 62.9389 92.0475C60.7039 94.2883 58.0481 96.0654 55.1241 97.2765C52.2002 98.4876 49.0657 99.109 45.9008 99.1049H15.2434V52.4331L17.4121 52.9055L32.0978 56.1045C32.7304 56.2431 33.3761 56.3135 34.0237 56.3145C37.1012 56.3145 39.8277 54.7002 40.9137 52.187C41.0686 51.831 41.1884 51.4606 41.2713 51.0813C41.2784 51.0521 41.2839 51.0225 41.2878 50.9927C42.5444 51.0912 48.1778 49.7755 49.3819 50.0642C59.9598 52.5971 69.6944 58.3716 69.9963 75.0094Z" fill="#27468D"/>
<path d="M38.4136 49.3883C38.4135 49.904 38.3236 50.4159 38.1479 50.9008C37.8364 51.7529 37.2705 52.4887 36.527 53.0086C35.7835 53.5284 34.8981 53.8072 33.9909 53.8072C33.0836 53.8072 32.1983 53.5284 31.4547 53.0086C30.7112 52.4887 30.1454 51.7529 29.8339 50.9008C29.6135 50.294 29.5286 49.6463 29.5851 49.0031C29.6417 48.36 29.8384 47.7371 30.1614 47.1781C30.4844 46.6191 30.9258 46.1376 31.4548 45.7674C31.9837 45.3972 32.5872 45.1473 33.223 45.0352C33.8588 44.9231 34.5114 44.9516 35.1351 45.1186C35.7587 45.2856 36.3382 45.5871 36.8328 46.002C37.3275 46.4168 37.7254 46.935 37.9985 47.52C38.2715 48.105 38.4132 48.7427 38.4136 49.3883Z" fill="#3361AD"/>
</svg>
